<svg fill="none" height="40" viewBox="0 0 96 40" width="96" xmlns="http://www.w3.org/2000/svg"><path d="m17.7639 5.2726c-1.0384 1.3346-2.8186 2.37262-4.5989 2.22433-.2967-1.77946.5934-3.70722 1.6319-4.89353 1.1868-1.3346 3.1154-2.224337 4.7472-2.372626.1484 1.927756-.5934 3.707226-1.7802 5.041826zm1.6319 2.52091c-2.522-.14829-4.7472 1.48289-5.9341 1.48289-1.3351 0-3.1153-1.3346-5.19225-1.3346-2.67032 0-5.04394 1.48289-6.52745 3.8555-2.670326 4.8936-.59341 11.8631 2.07691 15.8669 1.33517 1.9278 2.81868 4.0038 4.8956 4.0038 2.07689-.1483 2.81869-1.3346 5.19229-1.3346s3.1154 1.3346 5.1923 1.1863c2.0769 0 3.4121-1.9277 4.7472-3.8555 1.4835-2.076 2.077-4.3003 2.2253-4.4486-.1483 0-4.1538-1.4829-4.3022-6.2282 0-4.0038 3.2637-5.9315 3.4121-6.0798-1.7802-2.66922-4.7472-2.9658-5.7857-3.11409zm14.9835-5.3384v28.91639h4.4505v-9.9354h6.2308c5.6373 0 9.6428-3.8555 9.6428-9.4905 0-5.63498-3.8571-9.49049-9.4945-9.49049zm4.4505 3.70722h5.1923c3.8571 0 6.0824 2.07605 6.0824 5.78327 0 3.7072-2.2253 5.7833-6.0824 5.7833h-5.1923zm24.0329 25.35737c2.8187 0 5.489-1.3346 6.6758-3.7072v3.559h4.1539v-14.3841c0-4.1521-3.2638-6.8213-8.4561-6.8213-4.7472 0-8.3076 2.6692-8.3076 6.3765h4.0055c.2967-1.7795 1.9285-2.9658 4.1538-2.9658 2.8187 0 4.3022 1.3346 4.3022 3.7072v1.6312l-5.489.2966c-5.3407.2965-8.1593 2.3726-8.1593 6.0798.1483 3.8555 2.967 6.2281 7.1208 6.2281zm1.1868-3.4106c-2.3736 0-3.8571-1.1863-3.8571-2.8175 0-1.9277 1.4835-2.9658 4.3022-3.1141l4.8956-.2965v1.6311c0 2.6692-2.2253 4.597-5.3407 4.597zm15.2802 11.1217c4.3022 0 6.3791-1.6312 8.1593-6.8213l8.011-22.0951h-4.5989l-5.3406 17.2015-5.3407-17.2015h-4.7472l7.7142 21.0571-.445 1.3346c-.7418 2.2243-1.7802 2.9657-3.8571 2.9657-.2967 0-1.0385 0-1.3352 0v3.4107c.2967.1483 1.4835.1483 1.7802.1483z" fill="#180e34"/></svg>
