<svg width="90" height="36" viewBox="0 0 90 36" fill="none" xmlns="http://www.w3.org/2000/svg">
<path d="M42.0388 17.2532V27.5724H38.7715V2.0899H47.4332C49.6285 2.0899 51.5004 2.82334 53.0319 4.2902C54.5975 5.75707 55.3803 7.548 55.3803 9.66301C55.3803 11.8292 54.5975 13.6201 53.0319 15.0699C51.5174 16.5197 49.6455 17.2361 47.4332 17.2361H42.0388V17.2532ZM42.0388 5.22831V14.1148H47.5013C48.7946 14.1148 49.8837 13.6713 50.7346 12.8014C51.6025 11.9315 52.0449 10.874 52.0449 9.68007C52.0449 8.50317 51.6025 7.46272 50.7346 6.59284C49.8837 5.68884 48.8116 5.24537 47.5013 5.24537H42.0388V5.22831Z" fill="#180e34"/>
<path d="M63.9232 9.56067C66.3396 9.56067 68.2456 10.2088 69.641 11.5051C71.0364 12.8014 71.7341 14.5753 71.7341 16.8268V27.5724H68.6199V25.1504H68.4838C67.1394 27.146 65.3356 28.1352 63.0893 28.1352C61.1664 28.1352 59.5668 27.5724 58.2735 26.4296C56.9802 25.2868 56.3335 23.8711 56.3335 22.1655C56.3335 20.3575 57.0142 18.9247 58.3756 17.8672C59.7369 16.7926 61.5578 16.2639 63.8211 16.2639C65.761 16.2639 67.3607 16.6221 68.6029 17.3385V16.588C68.6029 15.4452 68.1605 14.49 67.2586 13.6884C66.3566 12.8867 65.3016 12.4944 64.0934 12.4944C62.2725 12.4944 60.826 13.2619 59.771 14.8141L56.8951 13.0061C58.4777 10.7035 60.826 9.56067 63.9232 9.56067ZM59.7029 22.2166C59.7029 23.0695 60.0603 23.7858 60.792 24.3487C61.5067 24.9116 62.3576 25.2015 63.3276 25.2015C64.706 25.2015 65.9312 24.6898 67.0033 23.6664C68.0754 22.643 68.6199 21.4491 68.6199 20.0675C67.5989 19.2658 66.1865 18.8565 64.3656 18.8565C63.0383 18.8565 61.9322 19.1806 61.0473 19.8117C60.1454 20.4769 59.7029 21.2785 59.7029 22.2166Z" fill="#180e34"/>
<path d="M89.5 10.1235L78.609 35.2308H75.2396L79.2897 26.4467L72.1084 10.1235H75.665L80.8382 22.643H80.9063L85.9434 10.1235H89.5Z" fill="#180e34"/>
<path d="M29.0429 15.1723C29.0429 14.1046 28.9476 13.0829 28.7707 12.1004H15.0752V17.7291L22.9627 17.7308C22.6428 19.6036 21.6132 21.2001 20.0357 22.2644V25.9162H24.7308C27.4722 23.3731 29.0429 19.6138 29.0429 15.1723Z" fill="#4285F4"/>
<path d="M20.0375 22.2644C18.7306 23.148 17.0476 23.6648 15.0787 23.6648C11.2753 23.6648 8.04886 21.0961 6.89339 17.6336H2.05029V21.3997C4.44972 26.1721 9.38131 29.4469 15.0787 29.4469C19.0165 29.4469 22.3246 28.1489 24.7325 25.9145L20.0375 22.2644Z" fill="#34A853"/>
<path d="M6.43731 14.8397C6.43731 13.8675 6.59897 12.9277 6.89337 12.0441V8.27805H2.05027C1.05816 10.2515 0.5 12.4791 0.5 14.8397C0.5 17.2003 1.05986 19.4279 2.05027 21.4014L6.89337 17.6353C6.59897 16.7517 6.43731 15.8119 6.43731 14.8397Z" fill="#FABB05"/>
<path d="M15.0787 6.01294C17.228 6.01294 19.1526 6.7549 20.6722 8.20471L24.833 4.0378C22.3059 1.67888 19.0114 0.230774 15.0787 0.230774C9.38301 0.230774 4.44972 3.50563 2.05029 8.27805L6.89339 12.0441C8.04886 8.58166 11.2753 6.01294 15.0787 6.01294Z" fill="#E94235"/>
</svg>
