<svg width="312" height="201" viewBox="0 0 312 201" fill="none" xmlns="http://www.w3.org/2000/svg">
<mask id="path-1-inside-1_1628_3165" fill="white">
<path fill-rule="evenodd" clip-rule="evenodd" d="M51.259 100.935C47.4344 100.935 44.334 104.035 44.334 107.86V138.157C44.334 141.981 47.4344 145.082 51.259 145.082H58.0233C57.9182 148.615 56.5301 151.825 54.3089 154.264C53.6096 155.032 53.9613 156.335 54.9997 156.335C61.8484 156.335 67.5712 151.515 68.9606 145.082H194.953C198.778 145.082 201.878 141.981 201.878 138.157V107.86C201.878 104.035 198.778 100.935 194.953 100.935H51.259Z"/>
</mask>
<path d="M58.0233 145.082L59.7537 145.133L59.8068 143.35H58.0233V145.082ZM54.3089 154.264L53.029 153.098L53.029 153.098L54.3089 154.264ZM68.9606 145.082V143.35H67.5634L67.2684 144.716L68.9606 145.082ZM46.0652 107.86C46.0652 104.991 48.3906 102.666 51.259 102.666V99.2033C46.4783 99.2033 42.6027 103.079 42.6027 107.86H46.0652ZM46.0652 138.157V107.86H42.6027V138.157H46.0652ZM51.259 143.35C48.3906 143.35 46.0652 141.025 46.0652 138.157H42.6027C42.6027 142.937 46.4783 146.813 51.259 146.813V143.35ZM58.0233 143.35H51.259V146.813H58.0233V143.35ZM56.2928 145.03C56.2004 148.134 54.9823 150.954 53.029 153.098L55.5888 155.43C58.0779 152.697 59.6359 149.095 59.7537 145.133L56.2928 145.03ZM53.029 153.098C52.2502 153.953 52.0445 155.114 52.3486 156.098C52.67 157.138 53.6148 158.066 54.9997 158.066V154.604C55.1212 154.604 55.2879 154.648 55.4354 154.766C55.5704 154.874 55.632 154.996 55.6567 155.076C55.7002 155.217 55.6683 155.342 55.5888 155.43L53.029 153.098ZM54.9997 158.066C62.6806 158.066 69.0949 152.66 70.6528 145.447L67.2684 144.716C66.0474 150.369 61.0161 154.604 54.9997 154.604V158.066ZM194.953 143.35H68.9606V146.813H194.953V143.35ZM200.147 138.157C200.147 141.025 197.822 143.35 194.953 143.35V146.813C199.734 146.813 203.61 142.937 203.61 138.157H200.147ZM200.147 107.86V138.157H203.61V107.86H200.147ZM194.953 102.666C197.822 102.666 200.147 104.991 200.147 107.86H203.61C203.61 103.079 199.734 99.2033 194.953 99.2033V102.666ZM51.259 102.666H194.953V99.2033H51.259V102.666Z" fill="#F0477A" mask="url(#path-1-inside-1_1628_3165)"/>
<path d="M62.6611 126.43L56.6433 116.47H54.9293V129.591H56.6623V119.593L62.7183 129.591H64.3941V116.47H62.6611V126.43ZM71.4924 129.819C74.0252 129.819 76.1581 127.953 76.1581 125.135C76.1581 122.316 74.0252 120.469 71.4924 120.469C68.9596 120.469 66.8457 122.316 66.8457 125.135C66.8457 127.953 68.9596 129.819 71.4924 129.819ZM71.4924 128.258C69.8737 128.258 68.5216 126.982 68.5216 125.135C68.5216 123.306 69.8737 122.03 71.4924 122.03C73.1302 122.03 74.5013 123.306 74.5013 125.135C74.5013 126.982 73.1302 128.258 71.4924 128.258ZM80.6398 120.697V117.346H78.983V120.697H77.3833V122.126H78.983V129.591H80.6398V122.126H82.5633V120.697H80.6398ZM93.8228 120.469C92.8515 120.469 91.4042 120.964 90.871 122.049V115.86H89.2142V129.591H90.871V124.773C90.871 122.849 92.3564 122.107 93.5942 122.107C94.8321 122.107 95.7462 123.059 95.7462 124.544V129.591H97.403V124.449C97.4221 121.954 96.0319 120.469 93.8228 120.469ZM108.566 125.116C108.566 122.297 106.681 120.469 104.148 120.469C101.615 120.469 99.5777 122.297 99.5777 125.116C99.5777 127.934 101.615 129.819 104.148 129.819C105.862 129.819 107.462 128.981 108.224 127.439L106.795 126.868C106.281 127.763 105.291 128.258 104.205 128.258C102.682 128.258 101.539 127.439 101.292 125.858H108.528C108.547 125.611 108.566 125.363 108.566 125.116ZM101.311 124.43C101.577 122.83 102.644 122.03 104.148 122.03C105.615 122.03 106.7 122.906 106.91 124.43H101.311ZM114.995 120.469C113.814 120.469 112.957 121.154 112.5 122.716V120.697H110.824V129.591H112.5V126.334C112.5 123.992 113.205 122.069 114.976 122.069C115.319 122.069 115.795 122.145 116.271 122.373L116.538 120.812C116.271 120.64 115.623 120.469 114.995 120.469ZM126.29 125.116C126.29 122.297 124.404 120.469 121.872 120.469C119.339 120.469 117.301 122.297 117.301 125.116C117.301 127.934 119.339 129.819 121.872 129.819C123.586 129.819 125.185 128.981 125.947 127.439L124.519 126.868C124.005 127.763 123.014 128.258 121.929 128.258C120.405 128.258 119.263 127.439 119.015 125.858H126.252C126.271 125.611 126.29 125.363 126.29 125.116ZM119.034 124.43C119.301 122.83 120.367 122.03 121.872 122.03C123.338 122.03 124.424 122.906 124.633 124.43H119.034ZM136.716 127.248L134.031 120.697H132.241L135.821 129.324L133.955 133.914H135.707L141.23 120.697H139.44L136.716 127.248ZM151.099 125.116C151.099 122.297 149.213 120.469 146.681 120.469C144.148 120.469 142.11 122.297 142.11 125.116C142.11 127.934 144.148 129.819 146.681 129.819C148.395 129.819 149.994 128.981 150.756 127.439L149.328 126.868C148.814 127.763 147.823 128.258 146.738 128.258C145.214 128.258 144.072 127.439 143.824 125.858H151.061C151.08 125.611 151.099 125.363 151.099 125.116ZM143.843 124.43C144.11 122.83 145.176 122.03 146.681 122.03C148.147 122.03 149.233 122.906 149.442 124.43H143.843ZM155.569 120.697V117.346H153.912V120.697H152.313V122.126H153.912V129.591H155.569V122.126H157.492V120.697H155.569Z" fill="#F0477A"/>
<circle cx="179.631" cy="122.575" r="12.1188" stroke="#F0477A" stroke-width="1.73126"/>
<path d="M171.841 117.381C172.274 116.804 173.572 115.65 175.303 115.65" stroke="#F0477A" stroke-width="1.73126"/>
<path d="M187.422 117.381C186.989 116.804 185.691 115.65 183.959 115.65" stroke="#F0477A" stroke-width="1.73126"/>
<path d="M177.034 121.71C177.034 120.753 175.484 119.978 173.572 119.978C171.66 119.978 170.109 120.753 170.109 121.71" stroke="#F0477A" stroke-width="1.73126"/>
<path d="M189.153 121.71C189.153 120.753 187.602 119.978 185.69 119.978C183.778 119.978 182.228 120.753 182.228 121.71" stroke="#F0477A" stroke-width="1.73126"/>
<path d="M182.228 127.769C182.228 130.159 181.065 132.097 179.631 132.097C178.197 132.097 177.034 130.159 177.034 127.769C177.034 127.526 178.197 127.769 179.631 127.769C181.065 127.769 182.228 127.769 182.228 127.769Z" fill="#F0477A"/>
<path d="M177.482 127.336H177.481C177.541 126.384 177.798 125.545 178.166 124.931C178.594 124.217 179.126 123.874 179.631 123.874C180.136 123.874 180.668 124.217 181.096 124.931C181.465 125.545 181.721 126.384 181.782 127.336H181.78H181.776H181.771H181.767H181.762H181.758H181.753H181.749H181.744H181.74H181.735H181.731H181.726H181.721H181.717H181.712H181.707H181.703H181.698H181.693H181.688H181.684H181.679H181.674H181.669H181.664H181.66H181.655H181.65H181.645H181.64H181.635H181.63H181.625H181.62H181.615H181.61H181.605H181.6H181.595H181.59H181.584H181.579H181.574H181.569H181.564H181.559H181.553H181.548H181.543H181.538H181.532H181.527H181.522H181.516H181.511H181.505H181.5H181.495H181.489H181.484H181.478H181.473H181.467H181.462H181.456H181.451H181.445H181.44H181.434H181.428H181.423H181.417H181.411H181.406H181.4H181.394H181.389H181.383H181.377H181.371H181.366H181.36H181.354H181.348H181.342H181.336H181.331H181.325H181.319H181.313H181.307H181.301H181.295H181.289H181.283H181.277H181.271H181.265H181.259H181.253H181.247H181.24H181.234H181.228H181.222H181.216H181.21H181.204H181.197H181.191H181.185H181.179H181.172H181.166H181.16H181.153H181.147H181.141H181.134H181.128H181.122H181.115H181.109H181.102H181.096H181.089H181.083H181.077H181.07H181.064H181.057H181.05H181.044H181.037H181.031H181.024H181.018H181.011H181.004H180.998H180.991H180.984H180.978H180.971H180.964H180.958H180.951H180.944H180.937H180.93H180.924H180.917H180.91H180.903H180.896H180.89H180.883H180.876H180.869H180.862H180.855H180.848H180.841H180.834H180.827H180.82H180.813H180.806H180.799H180.792H180.785H180.778H180.771H180.764H180.757H180.75H180.743H180.736H180.728H180.721H180.714H180.707H180.7H180.693H180.685H180.678H180.671H180.664H180.656H180.649H180.642H180.635H180.627H180.62H180.613H180.605H180.598H180.591H180.583H180.576H180.569H180.561H180.554H180.546H180.539H180.531H180.524H180.516H180.509H180.502H180.494H180.487H180.479H180.471H180.464H180.456H180.449H180.441H180.434H180.426H180.419H180.411H180.403H180.396H180.388H180.38H180.373H180.365H180.357H180.35H180.342H180.334H180.327H180.319H180.311H180.303H180.296H180.288H180.28H180.272H180.264H180.257H180.249H180.241H180.233H180.225H180.218H180.21H180.202H180.194H180.186H180.178H180.17H180.162H180.154H180.146H180.139H180.131H180.123H180.115H180.107H180.099H180.091H180.083H180.075H180.067H180.059H180.051H180.043H180.035H180.027H180.018H180.01H180.002H179.994H179.986H179.978H179.97H179.962H179.954H179.946H179.937H179.929H179.921H179.913H179.905H179.897H179.888H179.88H179.872H179.864H179.856H179.847H179.839H179.831H179.823H179.814H179.806H179.798H179.79H179.781H179.773H179.765H179.756H179.748H179.74H179.731H179.723H179.715H179.706H179.698H179.69H179.681H179.673H179.665H179.656H179.648H179.639H179.631H179.623H179.614H179.606H179.597H179.589H179.581H179.572H179.564H179.556H179.547H179.539H179.531H179.522H179.514H179.506H179.497H179.489H179.481H179.473H179.464H179.456H179.448H179.44H179.431H179.423H179.415H179.407H179.398H179.39H179.382H179.374H179.366H179.357H179.349H179.341H179.333H179.325H179.317H179.308H179.3H179.292H179.284H179.276H179.268H179.26H179.252H179.244H179.236H179.228H179.219H179.211H179.203H179.195H179.187H179.179H179.171H179.163H179.155H179.147H179.139H179.132H179.124H179.116H179.108H179.1H179.092H179.084H179.076H179.068H179.06H179.052H179.045H179.037H179.029H179.021H179.013H179.005H178.998H178.99H178.982H178.974H178.967H178.959H178.951H178.943H178.936H178.928H178.92H178.912H178.905H178.897H178.889H178.882H178.874H178.866H178.859H178.851H178.844H178.836H178.828H178.821H178.813H178.806H178.798H178.791H178.783H178.776H178.768H178.761H178.753H178.746H178.738H178.731H178.723H178.716H178.708H178.701H178.694H178.686H178.679H178.671H178.664H178.657H178.649H178.642H178.635H178.628H178.62H178.613H178.606H178.598H178.591H178.584H178.577H178.57H178.562H178.555H178.548H178.541H178.534H178.527H178.519H178.512H178.505H178.498H178.491H178.484H178.477H178.47H178.463H178.456H178.449H178.442H178.435H178.428H178.421H178.414H178.407H178.4H178.393H178.386H178.379H178.373H178.366H178.359H178.352H178.345H178.338H178.332H178.325H178.318H178.311H178.305H178.298H178.291H178.284H178.278H178.271H178.264H178.258H178.251H178.245H178.238H178.231H178.225H178.218H178.212H178.205H178.199H178.192H178.186H178.179H178.173H178.166H178.16H178.153H178.147H178.141H178.134H178.128H178.121H178.115H178.109H178.102H178.096H178.09H178.084H178.077H178.071H178.065H178.059H178.052H178.046H178.04H178.034H178.028H178.022H178.016H178.009H178.003H177.997H177.991H177.985H177.979H177.973H177.967H177.961H177.955H177.949H177.943H177.937H177.932H177.926H177.92H177.914H177.908H177.902H177.897H177.891H177.885H177.879H177.873H177.868H177.862H177.856H177.851H177.845H177.839H177.834H177.828H177.823H177.817H177.811H177.806H177.8H177.795H177.789H177.784H177.778H177.773H177.767H177.762H177.757H177.751H177.746H177.741H177.735H177.73H177.725H177.719H177.714H177.709H177.704H177.698H177.693H177.688H177.683H177.678H177.673H177.667H177.662H177.657H177.652H177.647H177.642H177.637H177.632H177.627H177.622H177.617H177.612H177.607H177.603H177.598H177.593H177.588H177.583H177.578H177.574H177.569H177.564H177.559H177.555H177.55H177.545H177.541H177.536H177.532H177.527H177.522H177.518H177.513H177.509H177.504H177.5H177.495H177.491H177.486H177.482Z" stroke="#F0477A" stroke-width="0.865628"/>
<line x1="170.542" y1="120.844" x2="170.542" y2="130.366" stroke="#F0477A" stroke-width="0.865628"/>
<line x1="175.736" y1="119.978" x2="175.736" y2="134.694" stroke="#F0477A" stroke-width="0.865628"/>
<line x1="188.72" y1="120.844" x2="188.72" y2="130.366" stroke="#F0477A" stroke-width="0.865628"/>
<line x1="183.527" y1="119.978" x2="183.527" y2="134.694" stroke="#F0477A" stroke-width="0.865628"/>
<mask id="path-16-inside-2_1628_3165" fill="white">
<path fill-rule="evenodd" clip-rule="evenodd" d="M167.253 45.5344C163.429 45.5344 160.328 48.6349 160.328 52.4595V82.7564C160.328 86.581 163.429 89.6815 167.253 89.6815H243.203C244.592 96.1144 250.315 100.935 257.163 100.935C258.202 100.935 258.554 99.6314 257.854 98.8637C255.633 96.4251 254.245 93.2144 254.14 89.6815H260.741C264.566 89.6815 267.666 86.581 267.666 82.7564V52.4594C267.666 48.6349 264.566 45.5344 260.741 45.5344H167.253Z"/>
</mask>
<path d="M243.203 89.6815L244.895 89.3159L244.6 87.9502H243.203V89.6815ZM257.854 98.8637L256.574 100.029L256.574 100.029L257.854 98.8637ZM254.14 89.6815V87.9502H252.356L252.409 89.733L254.14 89.6815ZM162.059 52.4595C162.059 49.591 164.385 47.2657 167.253 47.2657V43.8032C162.472 43.8032 158.597 47.6787 158.597 52.4595H162.059ZM162.059 82.7564V52.4595H158.597V82.7564H162.059ZM167.253 87.9502C164.385 87.9502 162.059 85.6249 162.059 82.7564H158.597C158.597 87.5372 162.472 91.4127 167.253 91.4127V87.9502ZM243.203 87.9502H167.253V91.4127H243.203V87.9502ZM257.163 99.2033C251.147 99.2033 246.116 94.9686 244.895 89.3159L241.51 90.047C243.068 97.2601 249.483 102.666 257.163 102.666V99.2033ZM256.574 100.029C256.495 99.9422 256.463 99.8164 256.507 99.6759C256.531 99.5958 256.593 99.4737 256.728 99.3659C256.875 99.2482 257.042 99.2033 257.163 99.2033V102.666C258.548 102.666 259.493 101.738 259.815 100.698C260.119 99.7141 259.913 98.5529 259.134 97.6978L256.574 100.029ZM252.409 89.733C252.527 93.6946 254.085 97.2968 256.574 100.029L259.134 97.6978C257.181 95.5534 255.963 92.7342 255.87 89.63L252.409 89.733ZM260.741 87.9502H254.14V91.4127H260.741V87.9502ZM265.935 82.7564C265.935 85.6249 263.609 87.9502 260.741 87.9502V91.4127C265.522 91.4127 269.397 87.5371 269.397 82.7564H265.935ZM265.935 52.4594V82.7564H269.397V52.4594H265.935ZM260.741 47.2657C263.609 47.2657 265.935 49.591 265.935 52.4594H269.397C269.397 47.6787 265.522 43.8032 260.741 43.8032V47.2657ZM167.253 47.2657H260.741V43.8032H167.253V47.2657Z" fill="#00B198" mask="url(#path-16-inside-2_1628_3165)"/>
<path d="M169.657 61.0695V62.6692H173.656V74.1907H175.389V62.6692H179.388V61.0695H169.657ZM185.709 65.0687C184.738 65.0687 183.291 65.5638 182.758 66.6493V60.4601H181.101V74.1907H182.758V69.3726C182.758 67.4492 184.243 66.7065 185.481 66.7065C186.719 66.7065 187.633 67.6586 187.633 69.1441V74.1907H189.29V69.0488C189.309 66.5541 187.918 65.0687 185.709 65.0687ZM200.453 69.7154C200.453 66.8969 198.568 65.0687 196.035 65.0687C193.502 65.0687 191.464 66.8969 191.464 69.7154C191.464 72.5339 193.502 74.4192 196.035 74.4192C197.749 74.4192 199.348 73.5813 200.11 72.0387L198.682 71.4674C198.168 72.3625 197.177 72.8576 196.092 72.8576C194.568 72.8576 193.426 72.0387 193.178 70.4581H200.415C200.434 70.2105 200.453 69.9629 200.453 69.7154ZM193.197 69.0298C193.464 67.4301 194.53 66.6303 196.035 66.6303C197.501 66.6303 198.587 67.5063 198.796 69.0298H193.197ZM206.882 65.0687C205.701 65.0687 204.844 65.7543 204.387 67.3159V65.2972H202.711V74.1907H204.387V70.9342C204.387 68.5918 205.092 66.6684 206.863 66.6684C207.205 66.6684 207.681 66.7445 208.158 66.9731L208.424 65.4115C208.158 65.2401 207.51 65.0687 206.882 65.0687ZM218.176 69.7154C218.176 66.8969 216.291 65.0687 213.758 65.0687C211.225 65.0687 209.188 66.8969 209.188 69.7154C209.188 72.5339 211.225 74.4192 213.758 74.4192C215.472 74.4192 217.072 73.5813 217.834 72.0387L216.405 71.4674C215.891 72.3625 214.901 72.8576 213.815 72.8576C212.292 72.8576 211.149 72.0387 210.902 70.4581H218.138C218.157 70.2105 218.176 69.9629 218.176 69.7154ZM210.921 69.0298C211.187 67.4301 212.254 66.6303 213.758 66.6303C215.225 66.6303 216.31 67.5063 216.52 69.0298H210.921ZM229.039 66.4398L225.23 61.0695H223.173L228.163 68.1347V74.1907H229.896V68.1347L234.942 61.0695H232.867L229.039 66.4398ZM242.688 69.7154C242.688 66.8969 240.803 65.0687 238.27 65.0687C235.737 65.0687 233.699 66.8969 233.699 69.7154C233.699 72.5339 235.737 74.4192 238.27 74.4192C239.984 74.4192 241.583 73.5813 242.345 72.0387L240.917 71.4674C240.403 72.3625 239.412 72.8576 238.327 72.8576C236.803 72.8576 235.661 72.0387 235.413 70.4581H242.65C242.669 70.2105 242.688 69.9629 242.688 69.7154ZM235.432 69.0298C235.699 67.4301 236.765 66.6303 238.27 66.6303C239.736 66.6303 240.822 67.5063 241.031 69.0298H235.432ZM247.158 65.2972V61.9455H245.501V65.2972H243.902V66.7255H245.501V74.1907H247.158V66.7255H249.082V65.2972H247.158ZM253.753 70.401L253.772 69.6392C253.772 68.7251 254.343 68.4585 255.143 68.2109C256.628 67.7539 257.904 66.3827 257.904 64.5355C257.904 62.2692 256.228 60.841 254.172 60.841C252.134 60.841 250.249 62.3645 250.249 64.783H251.829C251.906 63.2405 253.029 62.3835 254.172 62.3835C255.352 62.3835 256.248 63.1643 256.248 64.5355C256.248 65.5829 255.524 66.3256 254.667 66.6493L254.019 66.8778C252.896 67.2968 252.077 67.9253 252.115 69.6392L252.134 70.401H253.753ZM252.934 74.3621C253.6 74.3621 254.153 73.8669 254.153 73.2004C254.153 72.5339 253.6 72.0387 252.934 72.0387C252.267 72.0387 251.715 72.5339 251.715 73.2004C251.715 73.8669 252.267 74.3621 252.934 74.3621Z" fill="#00B198"/>
</svg>
