<svg width="312" height="201" viewBox="0 0 312 201" fill="none" xmlns="http://www.w3.org/2000/svg">
<path d="M203.046 94.8886L209.592 101.435L203.046 107.981" stroke="#F0477A" stroke-width="2"/>
<rect x="68.5" y="74.4346" width="48" height="93" rx="7" fill="white" stroke="#00B198" stroke-width="2"/>
<mask id="path-3-inside-1_1628_3118" fill="white">
<path fill-rule="evenodd" clip-rule="evenodd" d="M108.5 73.4346V76.4346C108.5 78.6437 106.709 80.4346 104.5 80.4346H80.5C78.2909 80.4346 76.5 78.6437 76.5 76.4346V73.4346H108.5Z"/>
</mask>
<path d="M108.5 73.4346H110.5V71.4346H108.5V73.4346ZM76.5 73.4346V71.4346H74.5V73.4346H76.5ZM106.5 73.4346V76.4346H110.5V73.4346H106.5ZM106.5 76.4346C106.5 77.5391 105.605 78.4346 104.5 78.4346V82.4346C107.814 82.4346 110.5 79.7483 110.5 76.4346H106.5ZM104.5 78.4346H80.5V82.4346H104.5V78.4346ZM80.5 78.4346C79.3954 78.4346 78.5 77.5391 78.5 76.4346H74.5C74.5 79.7483 77.1863 82.4346 80.5 82.4346V78.4346ZM78.5 76.4346V73.4346H74.5V76.4346H78.5ZM76.5 75.4346H108.5V71.4346H76.5V75.4346Z" fill="#00B198" mask="url(#path-3-inside-1_1628_3118)"/>
<path d="M102.984 126.661C102.984 122.574 99.9681 119.689 94.665 118.439L90.7729 117.526C86.9294 116.612 86.6375 114.545 86.6375 113.487C86.6375 110.795 89.0215 108.872 92.1352 108.872C95.3948 108.872 97.6328 110.939 97.5841 113.824H101.963C102.011 109.064 98.5571 105.651 93.546 105.122V101.372H90.5783V105.17C86.005 105.795 82.2102 108.92 82.2102 113.536C82.2102 115.939 83.2319 119.593 89.7026 121.18L93.5947 122.141C96.8057 122.911 98.5572 124.545 98.5572 126.805C98.5572 129.449 96.4651 131.757 92.7676 131.757C88.8268 131.757 86.4429 129.113 86.3943 126.42H82.0156C82.0156 130.555 85.3726 134.449 90.5783 135.314V139.497H93.546V135.507C99.4329 135.17 102.984 131.084 102.984 126.661Z" stroke="#00B198" stroke-width="2"/>
<path d="M76.5 162.435H108.5" stroke="#00B198" stroke-width="2"/>
<rect x="195.5" y="34.4346" width="48" height="93" rx="7" fill="white" stroke="#F0477A" stroke-width="2"/>
<mask id="path-8-inside-2_1628_3118" fill="white">
<path fill-rule="evenodd" clip-rule="evenodd" d="M235.5 33.4346V36.4346C235.5 38.6437 233.709 40.4346 231.5 40.4346H207.5C205.291 40.4346 203.5 38.6437 203.5 36.4346V33.4346H235.5Z"/>
</mask>
<path d="M235.5 33.4346H237.5V31.4346H235.5V33.4346ZM203.5 33.4346V31.4346H201.5V33.4346H203.5ZM233.5 33.4346V36.4346H237.5V33.4346H233.5ZM233.5 36.4346C233.5 37.5391 232.605 38.4346 231.5 38.4346V42.4346C234.814 42.4346 237.5 39.7483 237.5 36.4346H233.5ZM231.5 38.4346H207.5V42.4346H231.5V38.4346ZM207.5 38.4346C206.395 38.4346 205.5 37.5391 205.5 36.4346H201.5C201.5 39.7483 204.186 42.4346 207.5 42.4346V38.4346ZM205.5 36.4346V33.4346H201.5V36.4346H205.5ZM203.5 35.4346H235.5V31.4346H203.5V35.4346Z" fill="#F0477A" mask="url(#path-8-inside-2_1628_3118)"/>
<path d="M203.5 122.435H235.5" stroke="#F0477A" stroke-width="2"/>
<path d="M217.318 88.3386H222.318C222.318 84.489 222.682 83.7761 225.682 81.2096C227.409 79.7363 230.5 77.2174 230.5 72.7974C230.5 67.0466 226 63.4346 220.5 63.4346C215.182 63.4346 210.5 67.0941 210.5 73.8429H215.727C215.727 69.9933 217.955 68.3298 220.5 68.3298C223.273 68.3298 225.273 69.7556 225.273 72.7974C225.273 75.8391 222.682 77.7877 220.864 79.2135C217.864 81.5423 217.364 84.2038 217.318 88.3386ZM216 97.3948C216 99.581 217.682 101.435 219.818 101.435C221.955 101.435 223.682 99.581 223.682 97.3948C223.682 95.2086 221.955 93.4025 219.818 93.4025C217.682 93.4025 216 95.2086 216 97.3948Z" stroke="#F0477A" stroke-width="2"/>
<path d="M111.678 21.3587L111.375 20.4056L111.678 21.3587ZM192.04 71.2466C192.431 70.8561 192.431 70.2229 192.04 69.8324L185.676 63.4685C185.286 63.0779 184.652 63.0779 184.262 63.4685C183.871 63.859 183.871 64.4921 184.262 64.8827L189.919 70.5395L184.262 76.1964C183.871 76.5869 183.871 77.2201 184.262 77.6106C184.652 78.0011 185.286 78.0011 185.676 77.6106L192.04 71.2466ZM131.591 64.972L131.239 65.9077L131.591 64.972ZM126.227 129.739C126.743 129.269 127.248 128.796 127.742 128.319L126.354 126.879C125.873 127.343 125.382 127.804 124.88 128.261L126.227 129.739ZM130.594 125.406C131.537 124.385 132.436 123.35 133.291 122.302L131.743 121.037C130.912 122.053 130.04 123.058 129.124 124.049L130.594 125.406ZM135.79 119.042C136.595 117.919 137.355 116.784 138.071 115.638L136.375 114.578C135.682 115.688 134.945 116.788 134.165 117.876L135.79 119.042ZM140.126 112.096C140.78 110.878 141.388 109.651 141.95 108.416L140.13 107.587C139.586 108.783 138.998 109.971 138.364 111.149L140.126 112.096ZM143.53 104.622C144.017 103.333 144.459 102.038 144.857 100.738L142.944 100.153C142.559 101.412 142.131 102.667 141.659 103.914L143.53 104.622ZM145.931 96.7795C146.248 95.4432 146.522 94.1039 146.753 92.7636L144.783 92.4227C144.558 93.7231 144.292 95.0219 143.985 96.3172L145.931 96.7795ZM147.329 88.7068C147.481 87.3433 147.593 85.9809 147.665 84.6215L145.668 84.5155C145.597 85.837 145.489 87.1609 145.342 88.485L147.329 88.7068ZM147.766 80.525C147.762 79.1546 147.72 77.7894 147.643 76.4317L145.646 76.5456C145.722 77.8682 145.762 79.1974 145.766 80.531L147.766 80.525ZM147.303 72.3528C147.154 70.9909 146.97 69.6388 146.755 68.2988L144.78 68.6163C144.99 69.9238 145.169 71.2426 145.315 72.5706L147.303 72.3528ZM146.007 64.2789C145.723 62.9374 145.408 61.6109 145.065 60.3017L143.13 60.8086C143.466 62.0875 143.773 63.3829 144.05 64.6927L146.007 64.2789ZM143.937 56.3752C143.526 55.0641 143.088 53.7738 142.625 52.507L140.747 53.1936C141.199 54.4312 141.627 55.6918 142.028 56.9728L143.937 56.3752ZM141.132 48.7024C140.597 47.4291 140.037 46.1843 139.457 44.971L137.653 45.8342C138.219 47.0182 138.765 48.2335 139.288 49.4771L141.132 48.7024ZM137.599 41.3263C136.937 40.1047 136.254 38.9223 135.554 37.7828L133.85 38.8296C134.531 39.9379 135.196 41.0891 135.841 42.2796L137.599 41.3263ZM133.304 34.3495C132.496 33.193 131.67 32.093 130.834 31.0548L129.276 32.3097C130.083 33.311 130.881 34.3746 131.665 35.4957L133.304 34.3495ZM128.118 27.9434C127.127 26.9007 126.127 25.9463 125.124 25.0892L123.825 26.6094C124.77 27.4174 125.72 28.3234 126.668 29.3209L128.118 27.9434ZM121.766 22.5924C120.491 21.7889 119.217 21.1542 117.961 20.7138L117.299 22.6012C118.39 22.9835 119.529 23.5465 120.7 24.2844L121.766 22.5924ZM113.617 20.0102C112.85 20.0458 112.101 20.1753 111.375 20.4056L111.981 22.3118C112.532 22.1368 113.108 22.036 113.709 22.008L113.617 20.0102ZM111.375 20.4056C110.716 20.615 110.094 20.8519 109.507 21.1153L110.327 22.9397C110.84 22.7094 111.39 22.4994 111.981 22.3118L111.375 20.4056ZM106.084 23.2961C105.015 24.249 104.185 25.3455 103.58 26.5559L105.369 27.4497C105.86 26.467 106.535 25.5735 107.415 24.7888L106.084 23.2961ZM102.434 30.476C102.28 31.7603 102.305 33.102 102.487 34.4767L104.47 34.2145C104.307 32.9823 104.289 31.8098 104.42 30.7132L102.434 30.476ZM103.361 38.3092C103.74 39.5048 104.219 40.7154 104.788 41.9287L106.599 41.08C106.064 39.9381 105.618 38.8088 105.267 37.7039L103.361 38.3092ZM106.613 45.3354C107.262 46.4111 107.975 47.4822 108.748 48.5403L110.363 47.3611C109.623 46.3483 108.943 45.3261 108.326 44.3031L106.613 45.3354ZM111.136 51.5509C111.959 52.5088 112.828 53.4492 113.741 54.3653L115.158 52.9539C114.28 52.0723 113.443 51.168 112.653 50.2479L111.136 51.5509ZM116.541 56.9815C117.5 57.8155 118.496 58.621 119.523 59.3916L120.723 57.7916C119.735 57.0502 118.777 56.275 117.853 55.4721L116.541 56.9815ZM122.675 61.5781C123.753 62.2675 124.858 62.9168 125.988 63.5198L126.93 61.7555C125.848 61.178 124.788 60.5553 123.753 59.8933L122.675 61.5781ZM129.453 65.1876C130.043 65.4411 130.639 65.6814 131.239 65.9077L131.944 64.0363C131.373 63.8209 130.806 63.5919 130.242 63.35L129.453 65.1876ZM131.239 65.9077C131.842 66.135 132.442 66.3555 133.041 66.5694L133.714 64.686C133.126 64.476 132.536 64.2595 131.944 64.0363L131.239 65.9077ZM136.66 67.7916C137.894 68.1847 139.117 68.5501 140.329 68.8895L140.868 66.9636C139.679 66.6305 138.478 66.2718 137.266 65.8859L136.66 67.7916ZM144.03 69.8568C145.288 70.1621 146.531 70.44 147.759 70.6927L148.162 68.7338C146.957 68.4857 145.737 68.2129 144.502 67.9132L144.03 69.8568ZM151.523 71.3991C152.802 71.6162 154.062 71.8065 155.3 71.9726L155.566 69.9904C154.35 69.8273 153.114 69.6404 151.857 69.4273L151.523 71.3991ZM159.102 72.4162C160.401 72.5452 161.672 72.6485 162.915 72.7294L163.045 70.7336C161.824 70.6541 160.575 70.5527 159.3 70.426L159.102 72.4162ZM166.73 72.9137C168.043 72.9553 169.317 72.9733 170.549 72.9721L170.547 70.9721C169.335 70.9733 168.083 70.9556 166.793 70.9147L166.73 72.9137ZM174.371 72.9078C175.706 72.8644 176.981 72.8012 178.19 72.7256L178.066 70.7295C176.874 70.804 175.62 70.8661 174.306 70.9089L174.371 72.9078ZM182.002 72.4345C183.39 72.3103 184.658 72.1784 185.793 72.0551L185.577 70.0668C184.448 70.1893 183.195 70.3198 181.824 70.4425L182.002 72.4345ZM189.544 71.652C190.308 71.5797 190.9 71.5395 191.333 71.5395V69.5395C190.8 69.5395 190.13 69.5877 189.356 69.6609L189.544 71.652Z" fill="#F0477A"/>
</svg>
