<svg width="312" height="201" viewBox="0 0 312 201" fill="none" xmlns="http://www.w3.org/2000/svg">
<path d="M128.041 52.438L127.345 51.9814L127.345 51.9814L128.041 52.438ZM127.519 57.3004L128.271 56.9429L127.519 57.3004ZM127.345 51.9814C126.999 52.509 126.697 52.9662 126.474 53.3735C126.247 53.7888 126.07 54.2053 126.003 54.6669C125.867 55.596 126.211 56.4872 126.767 57.6579L128.271 56.9429C127.699 55.7391 127.597 55.277 127.651 54.9076C127.678 54.72 127.755 54.5008 127.935 54.1734C128.119 53.8378 128.377 53.4451 128.738 52.8946L127.345 51.9814ZM126.767 57.6579C127.619 59.4492 128.812 61.1865 131.178 61.1865V59.5212C129.874 59.5212 129.091 58.666 128.271 56.9429L126.767 57.6579ZM128.738 52.8946C129.097 52.3462 129.505 51.695 129.826 51.0991C129.987 50.8019 130.133 50.5037 130.242 50.2299C130.341 49.9802 130.446 49.6597 130.446 49.3499H128.781C128.781 49.3276 128.779 49.4018 128.694 49.616C128.618 49.8062 128.505 50.0414 128.361 50.3091C128.073 50.8431 127.695 51.4483 127.345 51.9814L128.738 52.8946Z" fill="#00B198"/>
<path d="M210.21 78.4802C210.487 79.8679 210.043 82.9764 209.377 84.3086" stroke="#00B198" stroke-width="1.66526"/>
<path d="M150.261 54.3338C150.261 50.3404 154.841 46.4239 156.089 51.8362C156.627 54.1678 156.327 56.6809 154.063 59.0112C153.304 59.7932 152.799 60.8148 152.807 61.9049C152.864 69.4058 150.676 70.1881 147.347 76.3988M150.261 54.3338C150.261 54.3338 147.753 57.565 145.92 59.7151C143.367 62.7078 143.183 65.3238 144.275 69.3272C145.034 72.1097 145.792 76.3988 147.347 76.3988M150.261 54.3338C152.144 40.4408 156.975 28.3998 172.742 29.3553C189.209 30.3532 199.717 43.0359 195.222 59.3301C190.599 76.0874 207.381 81.7946 204.797 94.7168C203.964 98.88 190.226 109.704 184.398 110.953C178.569 112.202 177.321 97.2154 168.994 93.0516C157.337 87.2229 137.213 95.3013 147.347 76.3988" stroke="#F0477A" stroke-width="1.66526"/>
<path d="M114.21 168.517C121.288 124.804 120.619 105.957 122.368 103.043C126.981 95.3535 139.169 92.6928 146.93 88.4717" stroke="#F0477A" stroke-width="1.66526"/>
<path d="M128.612 167.988C132.775 152.584 134.857 142.593 136.939 135.515" stroke="#F0477A" stroke-width="1.66526"/>
<path d="M204.381 95.9653C209.515 99.5734 209.959 100.711 210.626 104.708C211.458 109.704 221.45 156.331 217.703 165.49" stroke="#F0477A" stroke-width="1.66526"/>
<path d="M205.214 144.292C208.167 144.856 214.633 145.222 216.871 142.176" stroke="#F0477A" stroke-width="1.66526"/>
<path d="M199.386 169.653C199.386 154.442 202.091 151.555 204.692 145.411C205.49 143.528 207.181 140.481 207.527 138.465C208.365 133.576 208.641 124.848 208.545 123.026" stroke="#F0477A" stroke-width="1.66526"/>
<path d="M136.938 135.515C136.522 137.736 134.274 143.259 136.939 149.254C140.269 156.747 146.097 160.911 146.097 172.567" stroke="#F0477A" stroke-width="1.66526"/>
<path d="M118.49 137.442C118.607 139.081 120.031 142.716 124.794 144.146C129.556 145.576 133.548 144.742 134.949 144.146" stroke="#F0477A" stroke-width="1.66526"/>
<path d="M85.3162 80.5619C90.312 83.0598 101.969 84.6418 108.63 79.313M85.3162 80.5619C86.1487 75.9825 85.8052 71.434 84.1398 66.0219C84.1398 66.0219 79.3611 66.0219 77.4062 60.9953C75.0748 55.0003 77.9611 54.8894 79.904 55.9995C78.6269 50.0649 76.3563 43.51 78.655 41.0122C80.9537 38.5144 78.9766 36.0096 79.904 34.7675C82.2723 31.5953 86.7678 33.4913 93.226 31.4365C102.385 28.5224 104.883 31.4366 105.299 33.9346C105.715 36.4327 111.544 36.4327 112.793 39.7631C114.042 43.0936 111.128 54.7502 111.128 54.7502C112.515 53.7788 115.534 53.6129 114.042 58.9133C112.469 64.5021 107.849 64.9277 107.849 64.9277C106.206 68.2121 107.078 75.8232 108.63 79.313M85.3162 80.5619C81.8525 93.2622 60.4105 96.437 57.8395 107.622C55.3415 117.198 56.5906 130.52 55.3416 135.932C54.0927 141.344 54.0927 145.507 55.3416 152.168C56.3408 157.497 54.0927 166.6 52.8438 170.486M108.63 79.313C113.044 89.2436 132 83.6682 138.29 89.1137M66.9984 125.108C66.9984 125.108 66.7042 132.185 71.8471 144.258C76.99 156.331 76.6395 164.478 77.4062 169.653" stroke="#00B198" stroke-width="1.66526"/>
<path d="M208.128 77.6477L207.302 77.5445L207.217 78.2218L207.865 78.4376L208.128 77.6477ZM205.63 51.42L204.907 51.0069L205.63 51.42ZM213.957 40.1795L214.344 40.9163L213.957 40.1795ZM229.36 41.4285L229.132 42.229L229.36 41.4285ZM238.103 55.1668L237.313 54.9035L238.103 55.1668ZM234.772 65.991L233.982 65.7277L233.854 66.114L234.08 66.4528L234.772 65.991ZM233.523 81.8109L233.816 82.5906L234.108 82.4808L234.257 82.2057L233.523 81.8109ZM208.954 77.751C209.822 70.8089 207.404 66.9483 205.755 63.5461C204.934 61.8524 204.324 60.32 204.277 58.5403C204.23 56.7699 204.74 54.6566 206.353 51.8331L204.907 51.0069C203.19 54.0117 202.555 56.4259 202.612 58.5844C202.669 60.7337 203.412 62.5318 204.256 64.2726C205.937 67.7396 208.099 71.1645 207.302 77.5445L208.954 77.751ZM206.353 51.8331C208.551 47.9878 208.777 45.9255 209.232 44.8175C209.651 43.7944 210.367 43.0099 214.344 40.9163L213.569 39.4427C209.637 41.5123 208.368 42.5355 207.691 44.1856C207.049 45.7508 207.067 47.2272 204.907 51.0069L206.353 51.8331ZM214.344 40.9163C217.153 39.4384 219.409 39.3655 221.645 39.8376C222.787 40.0789 223.93 40.4641 225.167 40.9022C226.39 41.3357 227.706 41.8218 229.132 42.229L229.589 40.6279C228.227 40.2386 226.973 39.7758 225.723 39.3326C224.485 38.894 223.25 38.4746 221.989 38.2083C219.416 37.6651 216.758 37.7642 213.569 39.4427L214.344 40.9163ZM229.132 42.229C233.392 43.4465 235.859 45.2452 237.059 47.3354C238.251 49.4121 238.295 51.9563 237.313 54.9035L238.893 55.4302C239.967 52.2081 240.011 49.132 238.503 46.5063C237.004 43.8941 234.071 41.9083 229.589 40.6279L229.132 42.229ZM237.313 54.9035C236.475 57.4164 235.951 59.1976 235.482 60.8151C235.013 62.4312 234.601 63.8724 233.982 65.7277L235.562 66.2543C236.193 64.3627 236.614 62.8898 237.081 61.2794C237.548 59.6705 238.065 57.9131 238.893 55.4302L237.313 54.9035ZM232.764 64.0687C232.133 63.6096 231.516 63.3079 230.915 63.2191C230.283 63.1256 229.705 63.2755 229.234 63.6437C228.789 63.9913 228.497 64.4872 228.3 64.9983C228.1 65.5155 227.974 66.1082 227.899 66.7222C227.602 69.1457 228.036 72.385 228.563 74.1402L230.158 73.6617C229.685 72.0863 229.287 69.081 229.552 66.925C229.617 66.3942 229.719 65.9461 229.853 65.5981C229.99 65.2441 230.138 65.0505 230.259 64.9557C230.354 64.8816 230.468 64.8364 230.672 64.8665C230.907 64.9012 231.271 65.042 231.785 65.4154L232.764 64.0687ZM234.08 66.4528C234.46 67.0235 235.032 68.0661 235.466 69.2793C235.904 70.502 236.171 71.817 236.028 72.965L237.68 73.1716C237.87 71.6552 237.513 70.056 237.034 68.7184C236.552 67.3712 235.917 66.2074 235.465 65.5291L234.08 66.4528ZM236.028 72.965C235.876 74.1812 235.323 75.8302 234.658 77.4454C234.001 79.0433 233.264 80.5369 232.79 81.4162L234.257 82.2057C234.754 81.281 235.516 79.7354 236.198 78.0791C236.873 76.4401 237.499 74.6198 237.68 73.1716L236.028 72.965ZM233.231 81.0313C232.254 81.3979 229.484 81.9461 226.709 81.0211L226.183 82.6008C229.403 83.6742 232.573 83.0566 233.816 82.5906L233.231 81.0313ZM226.709 81.0211C226.202 80.852 225.689 80.822 225.205 80.9872C224.722 81.1516 224.361 81.4778 224.096 81.8547C223.592 82.5747 223.356 83.6022 223.245 84.6248C223.019 86.7125 223.26 89.3357 223.542 91.1014L225.187 90.8383C224.914 89.1347 224.697 86.6789 224.901 84.8046C225.005 83.8463 225.207 83.1721 225.46 82.8105C225.575 82.6467 225.672 82.5872 225.742 82.5634C225.809 82.5405 225.94 82.5201 226.183 82.6008L226.709 81.0211ZM223.642 74.3205C223.106 75.2573 222.18 76.665 221.158 77.8263C220.647 78.4076 220.132 78.9029 219.65 79.2466C219.153 79.6016 218.781 79.7293 218.536 79.7293V81.3946C219.291 81.3946 220.008 81.0367 220.617 80.6024C221.242 80.1568 221.851 79.5593 222.408 78.9264C223.524 77.6591 224.513 76.1526 225.087 75.1467L223.642 74.3205ZM218.536 79.7293C217.682 79.7293 216.136 79.3557 214.23 78.7765C212.36 78.2084 210.279 77.487 208.391 76.8578L207.865 78.4376C209.724 79.0574 211.848 79.7931 213.746 80.3699C215.607 80.9356 217.392 81.3946 218.536 81.3946V79.7293Z" fill="#00B198"/>
<path d="M61.1689 150.086C62.6954 151.751 65.7484 156.164 65.7484 160.494" stroke="#00B198" stroke-width="1.66526"/>
<path d="M210.82 96.3515C213.72 97.1553 217.297 97.8641 220.5 98.0166C222.1 98.0929 223.639 98.0319 224.968 97.7589C226.284 97.4883 227.485 96.9907 228.302 96.1185L227.087 94.9797C226.604 95.4955 225.788 95.8902 224.632 96.1277C223.489 96.3628 222.101 96.4258 220.579 96.3533C217.537 96.2084 214.088 95.5292 211.264 94.7467L210.82 96.3515Z" fill="#00B198"/>
<path d="M84.0664 84.7249C86.148 85.835 96.1395 89.0545 104.466 86.3901" stroke="#00B198" stroke-width="1.66526"/>
<path d="M244.764 104.708L243.974 104.971L244.764 104.708ZM230.193 96.7982L230.523 96.0337L230.193 96.7982ZM254.339 133.85L254.727 134.587L255.333 134.268L255.136 133.611L254.339 133.85ZM223.532 90.5535C223.532 92.21 224.81 95.382 229.863 97.5626L230.523 96.0337C225.929 94.0512 225.197 91.3948 225.197 90.5535H223.532ZM229.863 97.5626C235.269 99.8962 238.684 100.715 240.632 101.444C241.631 101.818 242.254 102.163 242.725 102.642C243.197 103.121 243.584 103.802 243.974 104.971L245.554 104.445C245.125 103.159 244.635 102.209 243.912 101.474C243.189 100.74 242.301 100.29 241.215 99.8842C238.993 99.053 235.94 98.372 230.523 96.0337L229.863 97.5626ZM243.974 104.971C249.807 122.473 251.048 125.779 253.541 134.089L255.136 133.611C252.634 125.268 251.377 121.914 245.554 104.445L243.974 104.971ZM254.339 133.85C253.951 133.113 253.951 133.113 253.951 133.113C253.951 133.113 253.952 133.113 253.952 133.113C253.952 133.113 253.951 133.113 253.951 133.113C253.951 133.113 253.95 133.114 253.949 133.115C253.946 133.116 253.941 133.118 253.935 133.122C253.922 133.129 253.901 133.139 253.874 133.153C253.818 133.181 253.734 133.222 253.623 133.276C253.401 133.382 253.07 133.535 252.647 133.715C251.799 134.075 250.581 134.545 249.109 134.977C246.154 135.843 242.225 136.541 238.226 135.941L237.979 137.588C242.306 138.237 246.495 137.478 249.577 136.575C251.123 136.122 252.403 135.628 253.299 135.247C253.747 135.057 254.1 134.894 254.342 134.777C254.464 134.719 254.558 134.673 254.622 134.64C254.655 134.624 254.68 134.611 254.697 134.602C254.706 134.598 254.713 134.594 254.718 134.592C254.72 134.59 254.722 134.589 254.724 134.589C254.724 134.588 254.725 134.588 254.725 134.588C254.726 134.587 254.726 134.587 254.726 134.587C254.726 134.587 254.727 134.587 254.339 133.85Z" fill="#00B198"/>
<path d="M249.343 135.515C250.73 141.344 251.008 146.34 254.755 155.915" stroke="#00B198" stroke-width="1.66526"/>
<path d="M130.879 39.3665L130.324 38.746L130.324 38.746L130.879 39.3665ZM131.943 56.4143L131.114 56.4972L131.943 56.4143ZM125.282 65.9901L125.809 66.6345L125.809 66.6345L125.282 65.9901ZM131.435 39.987C135.125 36.6854 139.359 36.1868 142.727 36.5313C144.411 36.7036 145.865 37.0866 146.896 37.4267C147.411 37.5965 147.819 37.7548 148.095 37.8693C148.233 37.9265 148.337 37.9727 148.406 38.0038C148.44 38.0194 148.466 38.0311 148.482 38.0386C148.489 38.0423 148.495 38.045 148.498 38.0465C148.5 38.0473 148.501 38.0477 148.501 38.0479C148.501 38.048 148.501 38.048 148.501 38.048C148.501 38.048 148.501 38.0479 148.501 38.0478C148.501 38.0477 148.5 38.0476 148.865 37.2991C149.23 36.5506 149.23 36.5505 149.229 36.5503C149.229 36.5502 149.229 36.55 149.228 36.5498C149.228 36.5494 149.227 36.549 149.226 36.5485C149.224 36.5475 149.221 36.5462 149.217 36.5446C149.211 36.5414 149.202 36.5371 149.19 36.5317C149.167 36.5209 149.135 36.5057 149.093 36.4867C149.009 36.4488 148.888 36.3956 148.733 36.3313C148.423 36.2027 147.977 36.0295 147.418 35.8452C146.302 35.4773 144.728 35.0621 142.896 34.8747C139.23 34.4997 134.472 35.0348 130.324 38.746L131.435 39.987ZM131.114 56.4972C131.3 58.3505 130.852 59.5907 129.84 60.8324C128.764 62.153 127.093 63.4324 124.754 65.3457L125.809 66.6345C128.05 64.801 129.917 63.374 131.131 61.8843C132.409 60.3155 133.002 58.6412 132.771 56.3315L131.114 56.4972ZM124.754 65.3457C122.918 66.8484 121.012 68.3448 120.158 70.613C119.286 72.9319 119.563 75.8622 121.475 80.1366L122.996 79.4566C121.157 75.3462 121.071 72.9161 121.717 71.1993C122.382 69.432 123.874 68.2175 125.809 66.6345L124.754 65.3457ZM132.771 56.3315C132.64 55.0223 132.135 53.5711 131.593 52.1377C131.036 50.6662 130.43 49.1893 130 47.7005C129.572 46.2173 129.347 44.8099 129.517 43.5186C129.683 42.2553 130.232 41.0632 131.435 39.987L130.324 38.746C128.816 40.0953 128.083 41.6543 127.866 43.3014C127.653 44.9204 127.944 46.5828 128.4 48.1624C128.855 49.7364 129.501 51.3155 130.035 52.7271C130.584 54.1766 131.008 55.4354 131.114 56.4972L132.771 56.3315Z" fill="#00B198"/>
</svg>
