<svg width="54" height="42" viewBox="0 0 54 42" fill="none" xmlns="http://www.w3.org/2000/svg">
<g clip-path="url(#clip0_306_1220)">
<path fill-rule="evenodd" clip-rule="evenodd" d="M46.4497 38.9272C46.4497 36.6854 49.0156 36.0007 49.9862 37.2876V35.0103H50.9268V41.1107H49.9862V40.5667C49.1115 41.8292 46.4497 41.2158 46.4497 38.9272ZM47.4072 38.9272C47.4072 39.6944 47.9283 40.3078 48.7334 40.3078C49.5141 40.3078 50.0577 39.7301 50.0502 38.9272C50.0594 38.7491 50.0321 38.5711 49.9701 38.4039C49.908 38.2367 49.8125 38.0838 49.6893 37.9547C49.5661 37.8255 49.4178 37.7227 49.2535 37.6525C49.0891 37.5823 48.9122 37.5463 48.7334 37.5465C47.9283 37.5465 47.4072 38.1599 47.4072 38.9272ZM22.7535 39.6006V37.6422H24.3035V36.768H22.7535V35.4548H21.7829V36.768H20.8837V37.629H21.7829V39.6006C21.7829 41.6754 23.8295 41.2889 24.4559 40.8856L24.202 40.0827C23.7467 40.3322 22.7535 40.6024 22.7535 39.6006ZM25.071 38.9159C25.071 37.5765 25.9702 36.6385 27.2249 36.6385C28.4081 36.6385 29.2809 37.3945 29.2809 39.3042H26.0304C26.3013 40.5667 27.6989 40.6342 28.6207 39.8839L29.0703 40.5911C27.746 41.7298 25.071 41.334 25.071 38.9159ZM27.1948 37.5108C26.5515 37.5108 26.1602 37.9254 26.0661 38.5388H28.3235C28.2238 37.8654 27.8381 37.5108 27.1948 37.5108ZM13.9258 36.8057C14.1661 36.9164 14.3773 37.0814 14.5425 37.2876V36.768H15.4831V41.1107H14.5425V40.5667C14.3807 40.7768 14.1702 40.9445 13.929 41.0556C13.6879 41.1667 13.4233 41.2178 13.158 41.2045C11.9466 41.2045 11.006 40.2366 11.006 38.9272C11.006 37.6178 11.941 36.6498 13.158 36.6498C13.4226 36.6416 13.6855 36.6949 13.9258 36.8057ZM11.9748 38.9272C11.9748 39.6944 12.4526 40.3078 13.2916 40.3078C14.0572 40.3078 14.5783 39.7301 14.582 38.9272C14.5707 38.1599 14.061 37.5465 13.2916 37.5465C12.4601 37.5465 11.9748 38.1599 11.9748 38.9272ZM7.57174 36.8328C7.83585 36.6981 8.13081 36.635 8.42706 36.6498C9.49176 36.6854 10.1652 37.3589 10.1708 38.385H10.1953V41.0976H9.22465C9.22465 40.7336 9.23017 40.3976 9.23524 40.0896C9.26335 38.3805 9.27728 37.5334 8.254 37.5334C7.11392 37.5334 7.13707 38.5207 7.17437 40.1119C7.18157 40.4189 7.1893 40.7484 7.1893 41.0976H6.24875C6.24875 40.7376 6.25426 40.4044 6.25933 40.0984C6.28748 38.3983 6.30181 37.5334 5.27998 37.5334C4.14138 37.5334 4.16299 38.4695 4.20021 40.082C4.20745 40.3956 4.21528 40.7347 4.21528 41.0976H3.24463V36.768H4.22468V37.2876C4.36562 37.0876 4.55342 36.9249 4.77176 36.8138C4.9901 36.7026 5.23237 36.6463 5.47749 36.6498C5.76579 36.6327 6.05322 36.6953 6.30812 36.8307C6.56303 36.966 6.77552 37.1689 6.92218 37.4171C7.08363 37.1689 7.30763 36.9674 7.57174 36.8328ZM17.5598 37.9948C17.5598 37.3233 18.9669 37.4321 19.7475 37.8654L20.1388 37.0981C19.0271 36.3797 16.5647 36.3909 16.5647 38.0661C16.5647 39.0593 17.5169 39.219 18.2922 39.349C18.8246 39.4383 19.2735 39.5136 19.2735 39.8351C19.2735 40.5855 17.6764 40.5198 16.8281 39.9308L16.4142 40.6811C17.731 41.5778 20.2705 41.3884 20.2705 39.7957C20.2693 38.7398 19.312 38.5952 18.5354 38.4778C18.0055 38.3978 17.5598 38.3304 17.5598 37.9948ZM52.3354 40.6101C52.3417 40.6268 52.3437 40.6447 52.3414 40.6624C52.3426 40.6784 52.3401 40.6944 52.3343 40.7094C52.3284 40.7243 52.3193 40.7378 52.3075 40.7487C52.2919 40.7487 52.2832 40.7554 52.2732 40.7631C52.2604 40.773 52.2456 40.7843 52.2116 40.7843L52.3432 40.9381H52.2473L52.1175 40.7731H52.0818V40.9381H51.9877V40.5311H52.1758C52.2164 40.5311 52.2416 40.5432 52.2626 40.5533C52.2777 40.5605 52.2907 40.5667 52.3056 40.5667C52.319 40.5785 52.3292 40.5934 52.3354 40.6101ZM52.4711 40.4373C52.4533 40.4195 52.4298 40.4049 52.4063 40.3904C52.3827 40.3758 52.3592 40.3613 52.3414 40.3435C52.3108 40.3435 52.2773 40.3343 52.2443 40.3252C52.2124 40.3165 52.181 40.3078 52.1532 40.3078C52.0989 40.3235 52.0436 40.3354 51.9877 40.3435C51.9407 40.3692 51.8971 40.4008 51.8579 40.4373C51.8333 40.4504 51.8119 40.4688 51.7953 40.4912C51.7787 40.5136 51.7673 40.5394 51.762 40.5667C51.7347 40.6253 51.723 40.6899 51.7281 40.7543C51.7261 40.8112 51.7377 40.8678 51.762 40.9194C51.7673 40.9467 51.7787 40.9725 51.7953 40.9949C51.8119 41.0173 51.8333 41.0357 51.8579 41.0488C51.8939 41.089 51.9382 41.121 51.9877 41.1426C52.0386 41.1692 52.0958 41.1815 52.1532 41.1783C52.218 41.1833 52.2829 41.171 52.3414 41.1426C52.3585 41.1264 52.3809 41.1123 52.4035 41.0981C52.428 41.0828 52.4526 41.0673 52.4711 41.0488C52.489 41.031 52.5036 41.0075 52.5182 40.9841L52.5182 40.9841C52.5328 40.9606 52.5473 40.9372 52.5652 40.9194C52.5934 40.8676 52.6076 40.8094 52.6066 40.7506C52.6118 40.686 52.5995 40.6211 52.5708 40.563C52.5475 40.545 52.5302 40.5187 52.5131 40.4928C52.4999 40.4727 52.4868 40.4528 52.4711 40.4373ZM52.4711 40.8856C52.4496 40.9071 52.441 40.9245 52.4323 40.9424C52.4265 40.9541 52.4206 40.966 52.411 40.9794C52.3961 40.9995 52.3765 41.0155 52.3538 41.026C52.3311 41.0365 52.3061 41.0411 52.2812 41.0394C52.2454 41.0751 52.2228 41.0751 52.1514 41.0751C52.1055 41.0762 52.0604 41.0638 52.0216 41.0394C51.9966 41.0394 51.9771 41.022 51.9561 41.0032C51.947 40.9951 51.9377 40.9867 51.9275 40.9794C51.8937 40.955 51.8673 40.9213 51.8673 40.8856C51.8415 40.8475 51.829 40.8021 51.8316 40.7562C51.8316 40.6962 51.8316 40.6624 51.8673 40.6267C51.8716 40.5779 51.8929 40.5321 51.9275 40.4973C51.9486 40.4752 51.966 40.4668 51.9847 40.4577C51.9961 40.4522 52.008 40.4465 52.0216 40.4373C52.0598 40.4116 52.1053 40.399 52.1514 40.4016C52.2097 40.4016 52.2454 40.4016 52.2812 40.4373C52.3015 40.4576 52.3299 40.4663 52.3568 40.4746C52.377 40.4809 52.3964 40.4868 52.411 40.4973C52.4294 40.5106 52.435 40.5301 52.4421 40.5548C52.448 40.5754 52.4549 40.5995 52.4711 40.6267C52.4711 40.6415 52.4773 40.654 52.4845 40.6687C52.4946 40.6894 52.5069 40.7144 52.5069 40.7562C52.5069 40.7709 52.5008 40.7835 52.4936 40.7981C52.4834 40.8188 52.4711 40.8439 52.4711 40.8856ZM41.1958 37.2876C40.2139 35.9895 37.6594 36.7248 37.6594 38.9272C37.6594 41.1933 40.3098 41.8423 41.1958 40.5667V41.1107H42.1665V36.768H41.1958V37.2876ZM39.943 40.3078C39.1379 40.3078 38.6526 39.6944 38.6526 38.9272C38.6526 38.1599 39.1379 37.5465 39.943 37.5465C40.7481 37.5465 41.2598 38.1599 41.2598 38.9272C41.2673 39.7301 40.7557 40.3078 39.943 40.3078ZM37.174 37.1694L36.7245 37.9367C35.6485 37.1469 34.279 37.6046 34.279 38.9272C34.279 40.2497 35.6372 40.7093 36.7245 39.942L37.174 40.7093C35.9551 41.7523 33.3065 41.2758 33.3065 38.9384C33.3065 36.6854 35.8027 36.0964 37.174 37.1694ZM31.2241 37.2876V36.768H30.2535V41.0976H31.2241V38.6589C31.2241 37.2914 32.3528 37.4677 32.729 37.6684L33.013 36.7717C32.4788 36.5316 31.6492 36.556 31.2241 37.2876ZM44.3561 36.768V37.2876C44.8527 36.4359 45.8704 36.6235 46.1544 36.7717L45.8704 37.6684C45.4208 37.4452 44.3561 37.3627 44.3561 38.6589V41.0976H43.4155V36.768H44.3561Z" fill="#180e34"/>
<path d="M34.1439 4.01755H19.8218V29.6294H34.1439V4.01755Z" fill="#F26522"/>
<path d="M20.7684 16.8441C20.7645 14.3782 21.3247 11.9438 22.4067 9.7251C23.4887 7.50643 25.0641 5.56171 27.0135 4.03821C24.5971 2.14716 21.6944 0.970628 18.6373 0.643144C15.5803 0.315661 12.4923 0.850436 9.72639 2.18634C6.96053 3.52223 4.62847 5.60532 2.99687 8.19741C1.36527 10.7895 0.5 13.7859 0.5 16.8441C0.5 19.9023 1.36527 22.8987 2.99687 25.4908C4.62847 28.0829 6.96053 30.166 9.72639 31.5019C12.4923 32.8378 15.5803 33.3726 18.6373 33.0451C21.6944 32.7176 24.5971 31.5411 27.0135 29.65C25.0641 28.1265 23.4887 26.1818 22.4067 23.9631C21.3247 21.7444 20.7645 19.31 20.7684 16.8441" fill="#E52423"/>
<path d="M51.9522 26.9171V26.3891H52.1604V26.2856H51.6191V26.3891H51.7961V26.9171H51.9522ZM52.9931 26.9171V26.2856H52.8369L52.6392 26.7204L52.4518 26.2856H52.2853V26.9171H52.3998V26.4409L52.5871 26.855H52.7016L52.889 26.4409V26.9171H52.9931Z" fill="#F99F1C"/>
<path d="M37.1411 0.539068C33.4686 0.536002 29.9017 1.7611 27.0137 4.01747C28.9657 5.53999 30.5441 7.48403 31.6295 9.70258C32.7149 11.9211 33.279 14.3561 33.279 16.8234C33.279 19.2906 32.7149 21.7256 31.6295 23.9442C30.5441 26.1627 28.9657 28.1068 27.0137 29.6293C29.0655 31.2323 31.4728 32.3244 34.035 32.8146C36.5971 33.3047 39.24 33.1787 41.7433 32.4471C44.2466 31.7155 46.5379 30.3994 48.4261 28.6085C50.3144 26.8176 51.745 24.6039 52.5987 22.1516C53.4524 19.6994 53.7045 17.0798 53.334 14.511C52.9635 11.9422 51.9812 9.49869 50.4688 7.38407C48.9563 5.26944 46.9577 3.54494 44.6394 2.35427C42.3211 1.16361 39.7503 0.541249 37.1411 0.539068" fill="#F99F1C"/>
</g>
<defs>
<clipPath id="clip0_306_1220">
<rect width="53" height="41" fill="white" transform="translate(0.5 0.230774)"/>
</clipPath>
</defs>
</svg>
