<svg width="288" height="288" viewBox="0 0 288 288" fill="none" xmlns="http://www.w3.org/2000/svg">
<path d="M58 93.2307C58 86.6033 63.3726 81.2307 70 81.2307H218C224.627 81.2307 230 86.6033 230 93.2307V200.231C230 206.858 224.627 212.231 218 212.231H58V93.2307Z" fill="#00B198"/>
<path d="M95.523 127.231V112.423H98.091V109.999H90.291V112.423H92.883V127.231H95.523ZM112.654 127.231L110.302 118.711C111.526 118.063 112.294 116.743 112.294 114.583C112.294 111.223 110.71 109.999 107.662 109.999H104.206V127.231H106.822V119.911H107.974L109.822 127.231H112.654ZM106.822 117.679V112.255H107.398C108.646 112.255 109.558 112.495 109.558 114.871C109.558 116.983 108.934 117.679 107.638 117.679H106.822ZM127.392 127.231L124.44 109.999H120.936L118.056 127.231H120.72L121.296 122.911H124.152L124.752 127.231H127.392ZM122.664 112.687H122.76L123.84 120.583H121.608L122.664 112.687ZM141.7 127.231V109.999H139.42V119.695H139.372L136.396 109.999H133.54V127.231H135.796V115.711H135.844L139.468 127.231H141.7ZM155.803 114.487C155.635 111.727 154.723 109.807 151.891 109.807C149.467 109.807 148.171 111.391 148.171 113.839C148.171 118.807 153.427 119.575 153.427 123.343C153.427 124.495 152.899 125.191 151.987 125.191C150.931 125.191 150.571 124.399 150.427 122.599L148.003 122.743C148.171 125.815 149.179 127.423 151.939 127.423C154.531 127.423 156.019 125.791 156.019 123.127C156.019 118.015 150.691 117.271 150.691 113.599C150.691 112.663 151.051 112.087 151.939 112.087C152.971 112.087 153.379 113.119 153.451 114.631L155.803 114.487ZM165.045 127.231V119.503H168.501V117.151H165.045V112.423H169.437V109.999H162.429V127.231H165.045ZM182.798 127.231V124.807H178.142V119.503H181.598V117.151H178.142V112.423H182.534V109.999H175.526V127.231H182.798ZM197.586 127.231L195.234 118.711C196.458 118.063 197.226 116.743 197.226 114.583C197.226 111.223 195.642 109.999 192.594 109.999H189.138V127.231H191.754V119.911H192.906L194.754 127.231H197.586ZM191.754 117.679V112.255H192.33C193.578 112.255 194.49 112.495 194.49 114.871C194.49 116.983 193.866 117.679 192.57 117.679H191.754Z" fill="white"/>
<path d="M102.651 183.231V162.623H111.867V156.351H102.651V143.743H114.363V137.279H95.6753V183.231H102.651ZM140.392 183.231V176.767H127.976V162.623H137.192V156.351H127.976V143.743H139.688V137.279H121V183.231H140.392ZM167.092 183.231V176.767H154.676V162.623H163.892V156.351H154.676V143.743H166.388V137.279H147.7V183.231H167.092ZM193.344 149.247C192.896 141.887 190.464 136.767 182.912 136.767C176.448 136.767 172.992 140.991 172.992 147.519C172.992 160.767 187.008 162.815 187.008 172.863C187.008 175.935 185.6 177.791 183.168 177.791C180.352 177.791 179.392 175.679 179.008 170.879L172.544 171.263C172.992 179.455 175.68 183.743 183.04 183.743C189.952 183.743 193.92 179.391 193.92 172.287C193.92 158.655 179.712 156.671 179.712 146.879C179.712 144.383 180.672 142.847 183.04 142.847C185.792 142.847 186.88 145.599 187.072 149.631L193.344 149.247Z" fill="white"/>
<path fill-rule="evenodd" clip-rule="evenodd" d="M4.05728 144.115C4.05728 66.8272 66.7117 4.17276 144 4.17276C181.855 4.17276 216.199 19.2032 241.391 43.6217L43.5062 241.506C19.0877 216.315 4.05728 181.97 4.05728 144.115ZM46.2892 244.298C71.5095 268.9 105.985 284.058 144 284.058C221.288 284.058 283.942 221.404 283.942 144.115C283.942 106.1 268.784 71.625 244.183 46.4047L46.2892 244.298ZM144 0.230713C64.5346 0.230713 0.115234 64.6501 0.115234 144.115C0.115234 223.581 64.5346 288 144 288C223.465 288 287.885 223.581 287.885 144.115C287.885 64.6501 223.465 0.230713 144 0.230713Z" fill="url(#paint0_radial_819_111)"/>
<defs>
<radialGradient id="paint0_radial_819_111" cx="0" cy="0" r="1" gradientUnits="userSpaceOnUse" gradientTransform="translate(127.5 163.5) rotate(-44.1491) scale(142.851 31.9031)">
<stop stop-color="#FF99B8" stop-opacity="0.7"/>
<stop offset="1" stop-color="#FFDCE6"/>
</radialGradient>
</defs>
</svg>
