<svg width="260" height="164" viewBox="0 0 260 164" fill="none" xmlns="http://www.w3.org/2000/svg">
<path d="M0 12C0 5.37258 5.37258 0 12 0H248C254.627 0 260 5.37258 260 12V152C260 158.627 254.627 164 248 164H12C5.37258 164 0 158.627 0 152V12Z" fill="#F0477A"/>
<path fill-rule="evenodd" clip-rule="evenodd" d="M36.9976 20.5269H31.6761L33.4826 17.7138C33.813 17.1912 34.2721 16.7599 34.8169 16.4602C35.3618 16.1604 35.9747 16.0021 36.5983 16H41.9199L40.1133 18.8293C39.7813 19.3491 39.3214 19.7774 38.7766 20.0743C38.2318 20.3711 37.6198 20.5268 36.9976 20.5269Z" fill="url(#paint0_linear_913_39)"/>
<path fill-rule="evenodd" clip-rule="evenodd" d="M32.7755 23.1881C29.6729 23.1881 23.2844 29.6164 23.2844 32.74C23.2844 35.8636 29.6761 42.2951 32.7755 42.2951C35.8748 42.2951 42.2666 35.8668 42.2666 32.74C42.2666 29.6132 35.8846 23.1881 32.7755 23.1881ZM32.7755 43.9506C28.7205 43.9506 21.648 36.8369 21.648 32.74C21.648 28.6431 28.7238 21.5293 32.7755 21.5293C36.8272 21.5293 43.903 28.6431 43.903 32.74C43.903 36.8369 36.837 43.9506 32.7755 43.9506Z" fill="url(#paint1_linear_913_39)"/>
<path fill-rule="evenodd" clip-rule="evenodd" d="M32.7756 31.6406C31.6498 31.6406 29.529 29.5032 29.529 28.3715C29.529 27.2397 31.6563 25.1024 32.7756 25.1024C33.8949 25.1024 36.0222 27.2397 36.0222 28.3715C36.0222 29.5032 33.9047 31.6406 32.7756 31.6406Z" fill="url(#paint2_linear_913_39)"/>
<path fill-rule="evenodd" clip-rule="evenodd" d="M32.7756 40.3808C31.6498 40.3808 29.529 38.2402 29.529 37.1117C29.529 35.9832 31.6563 33.8394 32.7756 33.8394C33.8949 33.8394 36.0222 35.98 36.0222 37.1117C36.0222 38.2434 33.9047 40.3808 32.7756 40.3808Z" fill="url(#paint3_linear_913_39)"/>
<path fill-rule="evenodd" clip-rule="evenodd" d="M28.4425 36.0091C27.3199 36.0091 25.1958 33.8717 25.1958 32.74C25.1958 31.6082 27.3199 29.4709 28.4425 29.4709C29.565 29.4709 31.6891 31.6082 31.6891 32.74C31.6891 33.8717 29.565 36.0091 28.4425 36.0091Z" fill="url(#paint4_linear_913_39)"/>
<path fill-rule="evenodd" clip-rule="evenodd" d="M37.1217 36.0091C35.9958 36.0091 33.8718 33.8717 33.8718 32.74C33.8718 31.6082 35.9958 29.4709 37.1217 29.4709C38.2475 29.4709 40.3683 31.6082 40.3683 32.74C40.3683 33.8717 38.2442 36.0091 37.1217 36.0091Z" fill="url(#paint5_linear_913_39)"/>
<path fill-rule="evenodd" clip-rule="evenodd" d="M91.5908 32.3422V37.7358H89.2081V32.6882C89.2081 30.3278 88.2263 29.4127 86.6619 29.4127C84.9142 29.4127 83.4873 30.6543 83.4873 32.7303V37.7358H81.1047V32.6882C81.1047 30.3278 80.1425 29.4127 78.5585 29.4127C76.7519 29.4127 75.3446 30.7352 75.3446 32.8919V37.7422H72.9587V27.6633H74.8798L75.3217 28.8015C75.3238 28.8042 75.3265 28.8064 75.3297 28.8079C75.3328 28.8094 75.3362 28.8102 75.3397 28.8102C75.3431 28.8102 75.3466 28.8094 75.3497 28.8079C75.3528 28.8064 75.3555 28.8042 75.3577 28.8015C75.8488 28.3287 76.43 27.9569 77.0677 27.7077C77.7053 27.4584 78.3867 27.3368 79.0723 27.3497C81.9589 27.3497 82.8687 29.2898 82.9997 29.6132C83.0017 29.6165 83.0046 29.6193 83.008 29.6212C83.0115 29.6231 83.0153 29.6241 83.0193 29.6241C83.0232 29.6241 83.0271 29.6231 83.0306 29.6212C83.034 29.6193 83.0369 29.6165 83.0389 29.6132C83.4762 28.9182 84.0862 28.3454 84.8109 27.9492C85.5356 27.553 86.3508 27.3466 87.179 27.3497C90.0984 27.3561 91.5908 29.0052 91.5908 32.3422Z" fill="url(#paint6_linear_913_39)"/>
<path fill-rule="evenodd" clip-rule="evenodd" d="M54.2579 35.9864C53.5949 36.0103 52.9399 35.8379 52.3769 35.4913C51.8138 35.1448 51.3684 34.6399 51.0978 34.0415C50.8272 33.4431 50.7438 32.7785 50.8582 32.1329C50.9727 31.4873 51.2797 30.8902 51.74 30.4183C52.2003 29.9463 52.7929 29.621 53.4416 29.4841C54.0903 29.3473 54.7657 29.405 55.381 29.65C55.9962 29.895 56.5234 30.316 56.8947 30.8591C57.2661 31.4022 57.4648 32.0425 57.4652 32.6979C57.4801 33.5539 57.1508 34.3808 56.5496 34.9972C55.9483 35.6137 55.1242 35.9694 54.2579 35.9864ZM54.703 27.3173C54.0072 27.285 53.3119 27.3889 52.657 27.6231C52.0021 27.8573 51.4005 28.2171 50.8869 28.6819C50.8851 28.6846 50.8827 28.6868 50.8798 28.6883C50.877 28.6898 50.8738 28.6906 50.8705 28.6906C50.8673 28.6906 50.8641 28.6898 50.8612 28.6883C50.8584 28.6868 50.856 28.6846 50.8542 28.6819L50.4712 27.7118H48.4847V40.7203C48.4837 40.8868 48.5383 41.049 48.6401 41.1817C48.7418 41.3144 48.8851 41.4102 49.0476 41.4543L50.8902 41.9361V36.7884C50.8906 36.7844 50.892 36.7807 50.8944 36.7775C50.8967 36.7742 50.8998 36.7717 50.9035 36.7701C50.9071 36.7684 50.9111 36.7678 50.9151 36.7681C50.9191 36.7685 50.9229 36.7699 50.9262 36.7722C51.8905 37.6204 53.1369 38.0888 54.4281 38.0882C55.8296 38.0558 57.1647 37.4919 58.1569 36.5134C59.1491 35.5349 59.7223 34.2168 59.7576 32.8322C59.793 31.4475 59.2878 30.1025 58.3468 29.0758C57.4058 28.0492 56.101 27.4195 54.703 27.3173Z" fill="url(#paint7_linear_913_39)"/>
<path fill-rule="evenodd" clip-rule="evenodd" d="M66.2496 35.9864C67.9842 35.9864 69.3882 34.5152 69.3882 32.6979C69.3882 30.8807 67.9842 29.4127 66.2496 29.4127C64.515 29.4127 63.1143 30.8742 63.1143 32.6979C63.1143 34.5216 64.5216 35.9864 66.2496 35.9864ZM60.8986 32.6979C60.9186 31.656 61.2496 30.6431 61.8501 29.7864C62.4506 28.9297 63.2938 28.2673 64.274 27.8823C65.2541 27.4974 66.3275 27.407 67.3595 27.6225C68.3914 27.8381 69.3359 28.35 70.0745 29.094C70.813 29.838 71.3128 30.7809 71.5109 31.8044C71.709 32.828 71.5968 33.8866 71.1882 34.8473C70.7796 35.808 70.093 36.6282 69.2144 37.2048C68.3358 37.7813 67.3044 38.0887 66.2496 38.0882C64.8168 38.0737 63.4484 37.4979 62.4451 36.4872C61.4417 35.4765 60.8855 34.1136 60.8986 32.6979Z" fill="url(#paint8_linear_913_39)"/>
<path fill-rule="evenodd" clip-rule="evenodd" d="M114.121 35.9865C115.855 35.9865 117.259 34.5152 117.259 32.698C117.259 30.8808 115.855 29.4127 114.121 29.4127C112.386 29.4127 110.995 30.8743 110.995 32.698C110.995 34.5217 112.389 35.9865 114.121 35.9865ZM108.77 32.698C108.79 31.6561 109.121 30.6432 109.721 29.7865C110.322 28.9298 111.165 28.2674 112.145 27.8824C113.125 27.4974 114.199 27.407 115.231 27.6226C116.263 27.8382 117.207 28.3501 117.946 29.094C118.684 29.838 119.184 30.781 119.382 31.8045C119.58 32.8281 119.468 33.8866 119.059 34.8474C118.651 35.8081 117.964 36.6282 117.086 37.2048C116.207 37.7814 115.176 38.0887 114.121 38.0883C112.688 38.0738 111.32 37.4979 110.316 36.4872C109.313 35.4765 108.757 34.1136 108.77 32.698Z" fill="url(#paint9_linear_913_39)"/>
<path fill-rule="evenodd" clip-rule="evenodd" d="M107.395 23.5115V37.739H104.99V24.7305C104.989 24.5642 105.044 24.4023 105.146 24.2697C105.247 24.1371 105.39 24.0411 105.553 23.9965L107.395 23.5115Z" fill="url(#paint10_linear_913_39)"/>
<path fill-rule="evenodd" clip-rule="evenodd" d="M98.2741 29.4127C98.9514 29.4242 99.607 29.6504 100.144 30.0579C100.682 30.4654 101.072 31.0327 101.259 31.6761C101.26 31.6796 101.26 31.6832 101.259 31.6868C101.259 31.6903 101.257 31.6937 101.255 31.6965C101.253 31.6994 101.25 31.7016 101.247 31.7032C101.243 31.7047 101.24 31.7054 101.236 31.7052H95.3155C95.3118 31.7054 95.3082 31.7047 95.3049 31.7032C95.3016 31.7016 95.2987 31.6994 95.2965 31.6965C95.2942 31.6937 95.2927 31.6903 95.292 31.6868C95.2913 31.6832 95.2915 31.6796 95.2926 31.6761C95.4784 31.033 95.8685 30.4658 96.4053 30.0583C96.9421 29.6507 97.5972 29.4244 98.2741 29.4127ZM100.909 34.4861C100.637 34.9388 100.252 35.3146 99.7904 35.5774C99.329 35.8402 98.8067 35.9811 98.2741 35.9864C97.5709 35.9717 96.8926 35.7269 96.3453 35.2903C95.7981 34.8538 95.4129 34.2502 95.25 33.5742C95.249 33.5708 95.2488 33.5671 95.2495 33.5636C95.2501 33.56 95.2517 33.5567 95.2539 33.5538C95.2561 33.551 95.259 33.5487 95.2624 33.5472C95.2657 33.5457 95.2693 33.545 95.273 33.5451H103.56C103.606 33.265 103.629 32.9817 103.628 32.6979C103.609 31.6552 103.278 30.6414 102.678 29.7837C102.077 28.926 101.234 28.2627 100.253 27.877C99.2725 27.4913 98.1983 27.4004 97.1655 27.6157C96.1327 27.831 95.1873 28.343 94.448 29.0873C93.7086 29.8316 93.2083 30.7751 93.0098 31.7994C92.8113 32.8237 92.9234 33.8831 93.3321 34.8446C93.7408 35.8061 94.4279 36.6269 95.3072 37.204C96.1864 37.7811 97.2186 38.0887 98.2741 38.0882C99.2165 38.0841 100.141 37.8333 100.953 37.3613C101.766 36.8893 102.437 36.2129 102.899 35.4012L100.909 34.4861Z" fill="url(#paint11_linear_913_39)"/>
<path fill-rule="evenodd" clip-rule="evenodd" d="M222.415 21.9281C219.951 23.7494 218.353 26.6757 218.353 29.9753C218.353 33.2749 219.951 36.2012 222.415 38.0225C220.754 39.2498 218.701 39.9753 216.477 39.9753C210.955 39.9753 206.477 35.4982 206.477 29.9753C206.477 24.4525 210.955 19.9753 216.477 19.9753C218.701 19.9753 220.754 20.7009 222.415 21.9281Z" fill="#E52423"/>
<path fill-rule="evenodd" clip-rule="evenodd" d="M222.415 38.0227C224.879 36.2014 226.477 33.275 226.477 29.9753C226.477 26.6756 224.879 23.7492 222.415 21.9279C224.075 20.7008 226.129 19.9753 228.352 19.9753C233.875 19.9753 238.352 24.4525 238.352 29.9753C238.352 35.4982 233.875 39.9753 228.352 39.9753C226.129 39.9753 224.075 39.2498 222.415 38.0227Z" fill="#F99F1C"/>
<path fill-rule="evenodd" clip-rule="evenodd" d="M222.415 38.0221C224.879 36.2008 226.478 33.2745 226.478 29.9749C226.478 26.6753 224.879 23.749 222.415 21.9277C219.951 23.749 218.353 26.6753 218.353 29.9749C218.353 33.2745 219.951 36.2008 222.415 38.0221Z" fill="#F26522"/>
<path d="M154.142 67.2675C170.365 67.2675 193.937 80.7653 215.68 102.497C237.408 124.213 250.902 147.778 250.921 164H252.098C252.003 128.311 189.849 66.1998 154.166 66.1728L154.189 66.1728H154.142L154.166 66.1728C118.505 66.1998 56.3749 128.311 56.2804 164H57.3753C57.446 147.781 70.93 124.276 92.6045 102.544C114.336 80.7537 137.919 67.2675 154.142 67.2675Z" fill="url(#paint12_linear_913_39)"/>
<path d="M238.763 164C238.718 153.858 230.338 134.717 206.946 111.325C183.491 87.8694 164.309 79.5076 154.189 79.5076C144.069 79.5076 124.887 87.8578 101.432 111.325C78.0398 134.729 69.66 153.858 69.6153 164H70.7449C70.8563 136.671 126.918 80.6372 154.189 80.6372C181.46 80.6372 237.487 136.671 237.598 164H238.763Z" fill="url(#paint13_linear_913_39)"/>
<path d="M220.851 164C220.793 154.066 202.202 135.49 192.307 135.49C182.446 135.49 163.809 154.066 163.751 164H164.881C164.987 154.751 183.11 136.655 192.307 136.655C196.511 136.655 203.254 140.684 209.485 146.903C215.675 153.083 219.67 159.779 219.721 164H220.851Z" fill="url(#paint14_linear_913_39)"/>
<path d="M144.499 164C144.441 154.066 125.85 135.49 115.943 135.49C106.083 135.49 87.4453 154.066 87.3871 164H88.5288C88.6351 154.751 106.747 136.655 115.943 136.655H115.978C120.194 136.655 126.937 140.684 133.156 146.903C139.335 153.083 143.353 159.779 143.404 164H144.499Z" fill="url(#paint15_linear_913_39)"/>
<path d="M47.5574 164V127C47.5578 121.549 46.1914 116.184 43.5831 111.397C40.9749 106.61 37.208 102.553 32.6271 99.5971L7.93738 83.7234L7.90244 83.7001V130.494C7.90457 135.948 9.27453 141.314 11.8869 146.101C14.4994 150.889 18.2708 154.945 22.856 157.897L32.3524 164H34.47L23.5082 156.942C19.0718 154.103 15.4229 150.191 12.8988 145.569C10.3746 140.946 9.05677 135.761 9.06705 130.494V85.7965L32.0215 100.552C36.4579 103.391 40.1068 107.303 42.6309 111.926C45.1551 116.549 46.4729 121.733 46.4626 127V164H47.5574Z" fill="url(#paint16_linear_913_39)"/>
<path fill-rule="evenodd" clip-rule="evenodd" d="M125.586 125.894C125.586 115.971 144.267 97.3377 154.142 97.3377C164.065 97.3377 182.699 115.971 182.699 125.894C182.699 135.816 164.065 154.45 154.142 154.45C144.22 154.45 125.586 135.816 125.586 125.894ZM171.32 108.739C165.101 102.52 158.358 98.5023 154.142 98.5023C144.919 98.5023 126.716 116.694 126.716 125.917C126.716 135.141 144.919 153.344 154.142 153.344C163.366 153.344 181.557 135.141 181.557 125.917C181.557 121.701 177.539 114.958 171.32 108.739Z" fill="url(#paint17_linear_913_39)"/>
<rect x="16" y="128" width="81" height="24" rx="12" fill="#F0477A"/>
<path d="M20.5314 144V135.273H23.4803C24.165 135.273 24.7246 135.396 25.1593 135.643C25.5968 135.888 25.9206 136.219 26.1309 136.636C26.3411 137.054 26.4462 137.52 26.4462 138.034C26.4462 138.548 26.3411 139.016 26.1309 139.436C25.9235 139.857 25.6025 140.192 25.1678 140.442C24.7331 140.689 24.1763 140.812 23.4973 140.812H21.3837V139.875H23.4632C23.932 139.875 24.3084 139.794 24.5925 139.632C24.8766 139.47 25.0826 139.251 25.2104 138.976C25.3411 138.697 25.4064 138.384 25.4064 138.034C25.4064 137.685 25.3411 137.372 25.2104 137.097C25.0826 136.821 24.8752 136.605 24.5882 136.449C24.3013 136.29 23.9206 136.21 23.4462 136.21H21.5882V144H20.5314ZM29.9384 144.153C29.5236 144.153 29.1472 144.075 28.8091 143.919C28.4711 143.76 28.2026 143.531 28.0037 143.233C27.8049 142.932 27.7054 142.568 27.7054 142.142C27.7054 141.767 27.7793 141.463 27.927 141.23C28.0748 140.994 28.2722 140.81 28.5194 140.676C28.7665 140.543 29.0392 140.443 29.3375 140.378C29.6387 140.31 29.9412 140.256 30.2452 140.216C30.6429 140.165 30.9654 140.126 31.2125 140.101C31.4625 140.072 31.6444 140.026 31.758 139.96C31.8745 139.895 31.9327 139.781 31.9327 139.619V139.585C31.9327 139.165 31.8176 138.838 31.5875 138.605C31.3603 138.372 31.0151 138.256 30.552 138.256C30.0719 138.256 29.6955 138.361 29.4228 138.571C29.15 138.781 28.9583 139.006 28.8475 139.244L27.8929 138.903C28.0634 138.506 28.2907 138.196 28.5748 137.974C28.8617 137.75 29.1742 137.594 29.5123 137.506C29.8532 137.415 30.1884 137.369 30.5179 137.369C30.7282 137.369 30.9696 137.395 31.2424 137.446C31.5179 137.494 31.7836 137.595 32.0392 137.749C32.2978 137.902 32.5123 138.134 32.6827 138.443C32.8532 138.753 32.9384 139.168 32.9384 139.688V144H31.9327V143.114H31.8816C31.8134 143.256 31.6998 143.408 31.5407 143.57C31.3816 143.732 31.1699 143.869 30.9057 143.983C30.6415 144.097 30.3191 144.153 29.9384 144.153ZM30.0918 143.25C30.4895 143.25 30.8248 143.172 31.0975 143.016C31.373 142.859 31.5804 142.658 31.7196 142.411C31.8617 142.163 31.9327 141.903 31.9327 141.631V140.71C31.8901 140.761 31.7963 140.808 31.6515 140.851C31.5094 140.891 31.3446 140.926 31.1571 140.957C30.9725 140.986 30.7921 141.011 30.6159 141.034C30.4426 141.054 30.302 141.071 30.1941 141.085C29.9327 141.119 29.6884 141.175 29.4611 141.251C29.2367 141.325 29.0549 141.437 28.9157 141.588C28.7793 141.736 28.7111 141.937 28.7111 142.193C28.7111 142.543 28.8404 142.807 29.0989 142.986C29.3603 143.162 29.6912 143.25 30.0918 143.25ZM37.4331 144.136C36.8422 144.136 36.3237 143.996 35.8777 143.714C35.4345 143.433 35.0879 143.04 34.8379 142.534C34.5907 142.028 34.4672 141.437 34.4672 140.761C34.4672 140.08 34.5907 139.484 34.8379 138.976C35.0879 138.467 35.4345 138.072 35.8777 137.791C36.3237 137.51 36.8422 137.369 37.4331 137.369C38.024 137.369 38.541 137.51 38.9842 137.791C39.4302 138.072 39.7768 138.467 40.024 138.976C40.274 139.484 40.399 140.08 40.399 140.761C40.399 141.437 40.274 142.028 40.024 142.534C39.7768 143.04 39.4302 143.433 38.9842 143.714C38.541 143.996 38.024 144.136 37.4331 144.136ZM37.4331 143.233C37.8819 143.233 38.2512 143.118 38.541 142.888C38.8308 142.658 39.0453 142.355 39.1845 141.98C39.3237 141.605 39.3933 141.199 39.3933 140.761C39.3933 140.324 39.3237 139.916 39.1845 139.538C39.0453 139.161 38.8308 138.855 38.541 138.622C38.2512 138.389 37.8819 138.273 37.4331 138.273C36.9842 138.273 36.6149 138.389 36.3251 138.622C36.0353 138.855 35.8208 139.161 35.6816 139.538C35.5424 139.916 35.4728 140.324 35.4728 140.761C35.4728 141.199 35.5424 141.605 35.6816 141.98C35.8208 142.355 36.0353 142.658 36.3251 142.888C36.6149 143.118 36.9842 143.233 37.4331 143.233ZM42.9398 135.273V144H41.9341V135.273H42.9398ZM47.4409 144.136C46.85 144.136 46.3315 143.996 45.8855 143.714C45.4423 143.433 45.0957 143.04 44.8457 142.534C44.5985 142.028 44.475 141.437 44.475 140.761C44.475 140.08 44.5985 139.484 44.8457 138.976C45.0957 138.467 45.4423 138.072 45.8855 137.791C46.3315 137.51 46.85 137.369 47.4409 137.369C48.0318 137.369 48.5488 137.51 48.992 137.791C49.438 138.072 49.7846 138.467 50.0318 138.976C50.2818 139.484 50.4068 140.08 50.4068 140.761C50.4068 141.437 50.2818 142.028 50.0318 142.534C49.7846 143.04 49.438 143.433 48.992 143.714C48.5488 143.996 48.0318 144.136 47.4409 144.136ZM47.4409 143.233C47.8897 143.233 48.2591 143.118 48.5488 142.888C48.8386 142.658 49.0531 142.355 49.1923 141.98C49.3315 141.605 49.4011 141.199 49.4011 140.761C49.4011 140.324 49.3315 139.916 49.1923 139.538C49.0531 139.161 48.8386 138.855 48.5488 138.622C48.2591 138.389 47.8897 138.273 47.4409 138.273C46.992 138.273 46.6227 138.389 46.3329 138.622C46.0431 138.855 45.8287 139.161 45.6895 139.538C45.5502 139.916 45.4806 140.324 45.4806 140.761C45.4806 141.199 45.5502 141.605 45.6895 141.98C45.8287 142.355 46.0431 142.658 46.3329 142.888C46.6227 143.118 46.992 143.233 47.4409 143.233ZM60.226 137.455C60.1749 137.023 59.9675 136.688 59.6039 136.449C59.2402 136.21 58.7942 136.091 58.2658 136.091C57.8794 136.091 57.5414 136.153 57.2516 136.278C56.9647 136.403 56.7402 136.575 56.5783 136.794C56.4192 137.013 56.3397 137.261 56.3397 137.54C56.3397 137.773 56.3951 137.973 56.5059 138.141C56.6195 138.305 56.7644 138.443 56.9405 138.554C57.1167 138.662 57.3013 138.751 57.4945 138.822C57.6877 138.891 57.8652 138.946 58.0272 138.989L58.9135 139.227C59.1408 139.287 59.3936 139.369 59.6721 139.474C59.9533 139.58 60.2218 139.723 60.4775 139.905C60.736 140.084 60.949 140.314 61.1167 140.595C61.2843 140.876 61.3681 141.222 61.3681 141.631C61.3681 142.102 61.2445 142.528 60.9973 142.909C60.753 143.29 60.3951 143.592 59.9235 143.817C59.4547 144.041 58.8851 144.153 58.2147 144.153C57.5897 144.153 57.0485 144.053 56.5911 143.851C56.1365 143.649 55.7786 143.368 55.5172 143.007C55.2587 142.646 55.1124 142.227 55.0783 141.75H56.1692C56.1976 142.08 56.3084 142.352 56.5016 142.568C56.6976 142.781 56.9448 142.94 57.2431 143.045C57.5442 143.148 57.8681 143.199 58.2147 143.199C58.6181 143.199 58.9803 143.134 59.3013 143.003C59.6223 142.869 59.8766 142.685 60.0641 142.449C60.2516 142.21 60.3453 141.932 60.3453 141.614C60.3453 141.324 60.2644 141.088 60.1025 140.906C59.9405 140.724 59.7275 140.577 59.4632 140.463C59.199 140.349 58.9135 140.25 58.6067 140.165L57.5328 139.858C56.851 139.662 56.3113 139.382 55.9135 139.018C55.5158 138.655 55.3169 138.179 55.3169 137.591C55.3169 137.102 55.449 136.676 55.7132 136.312C55.9803 135.946 56.3382 135.662 56.7871 135.46C57.2388 135.256 57.7431 135.153 58.2999 135.153C58.8624 135.153 59.3624 135.254 59.7999 135.456C60.2374 135.655 60.584 135.928 60.8397 136.274C61.0982 136.621 61.2346 137.014 61.2488 137.455H60.226ZM67.0943 141.324V137.455H68.1V144H67.0943V142.892H67.0261C66.8727 143.224 66.6341 143.507 66.3102 143.74C65.9863 143.97 65.5772 144.085 65.0829 144.085C64.6738 144.085 64.3102 143.996 63.992 143.817C63.6738 143.635 63.4238 143.362 63.242 142.999C63.0602 142.632 62.9693 142.17 62.9693 141.614V137.455H63.975V141.545C63.975 142.023 64.1085 142.403 64.3755 142.688C64.6454 142.972 64.9892 143.114 65.4068 143.114C65.6568 143.114 65.911 143.05 66.1696 142.922C66.4309 142.794 66.6497 142.598 66.8258 142.334C67.0048 142.07 67.0943 141.733 67.0943 141.324ZM71.8681 144.153C71.4533 144.153 71.0769 144.075 70.7388 143.919C70.4007 143.76 70.1323 143.531 69.9334 143.233C69.7346 142.932 69.6351 142.568 69.6351 142.142C69.6351 141.767 69.709 141.463 69.8567 141.23C70.0044 140.994 70.2019 140.81 70.449 140.676C70.6962 140.543 70.9689 140.443 71.2672 140.378C71.5684 140.31 71.8709 140.256 72.1749 140.216C72.5726 140.165 72.8951 140.126 73.1422 140.101C73.3922 140.072 73.574 140.026 73.6877 139.96C73.8042 139.895 73.8624 139.781 73.8624 139.619V139.585C73.8624 139.165 73.7473 138.838 73.5172 138.605C73.29 138.372 72.9448 138.256 72.4817 138.256C72.0016 138.256 71.6252 138.361 71.3525 138.571C71.0797 138.781 70.888 139.006 70.7772 139.244L69.8226 138.903C69.9931 138.506 70.2203 138.196 70.5044 137.974C70.7914 137.75 71.1039 137.594 71.4419 137.506C71.7828 137.415 72.1181 137.369 72.4476 137.369C72.6578 137.369 72.8993 137.395 73.1721 137.446C73.4476 137.494 73.7132 137.595 73.9689 137.749C74.2275 137.902 74.4419 138.134 74.6124 138.443C74.7828 138.753 74.8681 139.168 74.8681 139.688V144H73.8624V143.114H73.8113C73.7431 143.256 73.6294 143.408 73.4703 143.57C73.3113 143.732 73.0996 143.869 72.8354 143.983C72.5712 144.097 72.2488 144.153 71.8681 144.153ZM72.0215 143.25C72.4192 143.25 72.7544 143.172 73.0272 143.016C73.3027 142.859 73.5101 142.658 73.6493 142.411C73.7914 142.163 73.8624 141.903 73.8624 141.631V140.71C73.8198 140.761 73.726 140.808 73.5811 140.851C73.4391 140.891 73.2743 140.926 73.0868 140.957C72.9022 140.986 72.7218 141.011 72.5456 141.034C72.3723 141.054 72.2317 141.071 72.1238 141.085C71.8624 141.119 71.6181 141.175 71.3908 141.251C71.1664 141.325 70.9846 141.437 70.8453 141.588C70.709 141.736 70.6408 141.937 70.6408 142.193C70.6408 142.543 70.7701 142.807 71.0286 142.986C71.29 143.162 71.6209 143.25 72.0215 143.25ZM76.7037 144V137.455H77.6752V138.443H77.7434C77.8627 138.119 78.0787 137.857 78.3912 137.655C78.7037 137.453 79.0559 137.352 79.448 137.352C79.5218 137.352 79.6142 137.354 79.725 137.357C79.8358 137.359 79.9196 137.364 79.9764 137.369V138.392C79.9423 138.384 79.8642 138.371 79.742 138.354C79.6227 138.334 79.4963 138.324 79.3627 138.324C79.0446 138.324 78.7605 138.391 78.5105 138.524C78.2633 138.655 78.0673 138.837 77.9224 139.07C77.7804 139.3 77.7093 139.562 77.7093 139.858V144H76.7037ZM83.7136 144.136C83.0829 144.136 82.5389 143.997 82.0815 143.719C81.627 143.438 81.2761 143.045 81.0289 142.543C80.7846 142.037 80.6625 141.449 80.6625 140.778C80.6625 140.108 80.7846 139.517 81.0289 139.006C81.2761 138.491 81.6199 138.091 82.0602 137.804C82.5034 137.514 83.0204 137.369 83.6113 137.369C83.9522 137.369 84.2889 137.426 84.6213 137.54C84.9537 137.653 85.2562 137.838 85.5289 138.094C85.8017 138.347 86.019 138.682 86.1809 139.099C86.3429 139.517 86.4238 140.031 86.4238 140.642V141.068H81.3784V140.199H85.4011C85.4011 139.83 85.3272 139.5 85.1795 139.21C85.0346 138.92 84.8272 138.692 84.5574 138.524C84.2903 138.357 83.975 138.273 83.6113 138.273C83.2108 138.273 82.8642 138.372 82.5716 138.571C82.2818 138.767 82.0588 139.023 81.9025 139.338C81.7463 139.653 81.6681 139.991 81.6681 140.352V140.932C81.6681 141.426 81.7534 141.845 81.9238 142.189C82.0971 142.53 82.3372 142.79 82.644 142.969C82.9508 143.145 83.3074 143.233 83.7136 143.233C83.9778 143.233 84.2164 143.196 84.4295 143.122C84.6454 143.045 84.8315 142.932 84.9877 142.781C85.144 142.628 85.2647 142.437 85.35 142.21L86.3216 142.483C86.2193 142.812 86.0474 143.102 85.8059 143.352C85.5645 143.599 85.2662 143.793 84.911 143.932C84.5559 144.068 84.1568 144.136 83.7136 144.136ZM87.7662 144V143.233L91.4821 138.46V138.392H87.8855V137.455H92.7775V138.256L89.1639 142.994V143.062H92.8968V144H87.7662Z" fill="#F3F4F6"/>
<defs>
<linearGradient id="paint0_linear_913_39" x1="21.648" y1="18.3292" x2="116.564" y2="45.6975" gradientUnits="userSpaceOnUse">
<stop stop-color="#D2D5DB"/>
<stop offset="0.474471" stop-color="#F5F7FB"/>
<stop offset="1" stop-color="#D2D5DB"/>
</linearGradient>
<linearGradient id="paint1_linear_913_39" x1="21.648" y1="18.3292" x2="116.564" y2="45.6975" gradientUnits="userSpaceOnUse">
<stop stop-color="#D2D5DB"/>
<stop offset="0.474471" stop-color="#F5F7FB"/>
<stop offset="1" stop-color="#D2D5DB"/>
</linearGradient>
<linearGradient id="paint2_linear_913_39" x1="21.648" y1="18.3292" x2="116.564" y2="45.6975" gradientUnits="userSpaceOnUse">
<stop stop-color="#D2D5DB"/>
<stop offset="0.474471" stop-color="#F5F7FB"/>
<stop offset="1" stop-color="#D2D5DB"/>
</linearGradient>
<linearGradient id="paint3_linear_913_39" x1="21.648" y1="18.3292" x2="116.564" y2="45.6975" gradientUnits="userSpaceOnUse">
<stop stop-color="#D2D5DB"/>
<stop offset="0.474471" stop-color="#F5F7FB"/>
<stop offset="1" stop-color="#D2D5DB"/>
</linearGradient>
<linearGradient id="paint4_linear_913_39" x1="21.648" y1="18.3292" x2="116.564" y2="45.6975" gradientUnits="userSpaceOnUse">
<stop stop-color="#D2D5DB"/>
<stop offset="0.474471" stop-color="#F5F7FB"/>
<stop offset="1" stop-color="#D2D5DB"/>
</linearGradient>
<linearGradient id="paint5_linear_913_39" x1="21.648" y1="18.3292" x2="116.564" y2="45.6975" gradientUnits="userSpaceOnUse">
<stop stop-color="#D2D5DB"/>
<stop offset="0.474471" stop-color="#F5F7FB"/>
<stop offset="1" stop-color="#D2D5DB"/>
</linearGradient>
<linearGradient id="paint6_linear_913_39" x1="21.648" y1="18.3292" x2="116.564" y2="45.6975" gradientUnits="userSpaceOnUse">
<stop stop-color="#D2D5DB"/>
<stop offset="0.474471" stop-color="#F5F7FB"/>
<stop offset="1" stop-color="#D2D5DB"/>
</linearGradient>
<linearGradient id="paint7_linear_913_39" x1="21.648" y1="18.3292" x2="116.564" y2="45.6975" gradientUnits="userSpaceOnUse">
<stop stop-color="#D2D5DB"/>
<stop offset="0.474471" stop-color="#F5F7FB"/>
<stop offset="1" stop-color="#D2D5DB"/>
</linearGradient>
<linearGradient id="paint8_linear_913_39" x1="21.648" y1="18.3292" x2="116.564" y2="45.6975" gradientUnits="userSpaceOnUse">
<stop stop-color="#D2D5DB"/>
<stop offset="0.474471" stop-color="#F5F7FB"/>
<stop offset="1" stop-color="#D2D5DB"/>
</linearGradient>
<linearGradient id="paint9_linear_913_39" x1="21.648" y1="18.3292" x2="116.564" y2="45.6975" gradientUnits="userSpaceOnUse">
<stop stop-color="#D2D5DB"/>
<stop offset="0.474471" stop-color="#F5F7FB"/>
<stop offset="1" stop-color="#D2D5DB"/>
</linearGradient>
<linearGradient id="paint10_linear_913_39" x1="21.648" y1="18.3292" x2="116.564" y2="45.6975" gradientUnits="userSpaceOnUse">
<stop stop-color="#D2D5DB"/>
<stop offset="0.474471" stop-color="#F5F7FB"/>
<stop offset="1" stop-color="#D2D5DB"/>
</linearGradient>
<linearGradient id="paint11_linear_913_39" x1="21.648" y1="18.3292" x2="116.564" y2="45.6975" gradientUnits="userSpaceOnUse">
<stop stop-color="#D2D5DB"/>
<stop offset="0.474471" stop-color="#F5F7FB"/>
<stop offset="1" stop-color="#D2D5DB"/>
</linearGradient>
<linearGradient id="paint12_linear_913_39" x1="7.93713" y1="84.2242" x2="252.505" y2="164" gradientUnits="userSpaceOnUse">
<stop stop-color="#D2D5DB"/>
<stop offset="0.352738" stop-color="white"/>
<stop offset="1" stop-color="#9EA3AE"/>
</linearGradient>
<linearGradient id="paint13_linear_913_39" x1="7.93713" y1="84.2242" x2="252.505" y2="164" gradientUnits="userSpaceOnUse">
<stop stop-color="#D2D5DB"/>
<stop offset="0.352738" stop-color="white"/>
<stop offset="1" stop-color="#9EA3AE"/>
</linearGradient>
<linearGradient id="paint14_linear_913_39" x1="7.93713" y1="84.2242" x2="252.505" y2="164" gradientUnits="userSpaceOnUse">
<stop stop-color="#D2D5DB"/>
<stop offset="0.352738" stop-color="white"/>
<stop offset="1" stop-color="#9EA3AE"/>
</linearGradient>
<linearGradient id="paint15_linear_913_39" x1="7.93713" y1="84.2242" x2="252.505" y2="164" gradientUnits="userSpaceOnUse">
<stop stop-color="#D2D5DB"/>
<stop offset="0.352738" stop-color="white"/>
<stop offset="1" stop-color="#9EA3AE"/>
</linearGradient>
<linearGradient id="paint16_linear_913_39" x1="7.93713" y1="84.2242" x2="252.505" y2="164" gradientUnits="userSpaceOnUse">
<stop stop-color="#D2D5DB"/>
<stop offset="0.352738" stop-color="white"/>
<stop offset="1" stop-color="#9EA3AE"/>
</linearGradient>
<linearGradient id="paint17_linear_913_39" x1="7.93713" y1="84.2242" x2="252.505" y2="164" gradientUnits="userSpaceOnUse">
<stop stop-color="#D2D5DB"/>
<stop offset="0.352738" stop-color="white"/>
<stop offset="1" stop-color="#9EA3AE"/>
</linearGradient>
</defs>
</svg>
