<svg
  width="146"
  height="41"
  viewBox="0 0 146 41"
  fill="none"
  xmlns="http://www.w3.org/2000/svg"
>
  <g clip-path="url(#clip0_1163_1720)">
    <path
      fill-rule="evenodd"
      clip-rule="evenodd"
      d="M16.6072 22.9064C14.9269 22.9064 11.7618 19.7762 11.7618 18.1188C11.7618 16.4613 14.9367 13.3311 16.6072 13.3311C18.2776 13.3311 21.4525 16.4613 21.4525 18.1188C21.4525 19.7762 18.2923 22.9064 16.6072 22.9064Z"
      fill="#f04679"
    />
    <path
      fill-rule="evenodd"
      clip-rule="evenodd"
      d="M16.6072 35.7068C14.9269 35.7068 11.7618 32.5718 11.7618 30.9191C11.7618 29.2664 14.9367 26.1267 16.6072 26.1267C18.2776 26.1267 21.4525 29.2616 21.4525 30.9191C21.4525 32.5765 18.2923 35.7068 16.6072 35.7068Z"
      fill="#f04679"
    />
    <path
      fill-rule="evenodd"
      clip-rule="evenodd"
      d="M10.1403 29.3042C8.46491 29.3042 5.29492 26.174 5.29492 24.5166C5.29492 22.8591 8.46491 19.7289 10.1403 19.7289C11.8156 19.7289 14.9856 22.8591 14.9856 24.5166C14.9856 26.174 11.8156 29.3042 10.1403 29.3042Z"
      fill="#f04679"
    />
    <path
      fill-rule="evenodd"
      clip-rule="evenodd"
      d="M23.0933 29.3042C21.4131 29.3042 18.2431 26.174 18.2431 24.5166C18.2431 22.8591 21.4131 19.7289 23.0933 19.7289C24.7736 19.7289 27.9387 22.8591 27.9387 24.5166C27.9387 26.174 24.7687 29.3042 23.0933 29.3042Z"
      fill="#f04679"
    />
    <path
      fill-rule="evenodd"
      clip-rule="evenodd"
      d="M22.9083 6.62985H14.9662L17.6624 2.50987C18.1554 1.74451 18.8405 1.11284 19.6537 0.673907C20.4669 0.234976 21.3816 0.00311562 22.3123 0H30.2544L27.5582 4.14366C27.0626 4.90493 26.3763 5.53216 25.5632 5.96689C24.7501 6.40162 23.8368 6.62969 22.9083 6.62985Z"
      fill="#f04679"
    />
    <path
      fill-rule="evenodd"
      clip-rule="evenodd"
      d="M16.607 10.5273C11.9766 10.5273 2.44221 19.9416 2.44221 24.5162C2.44221 29.0908 11.9815 38.51 16.607 38.51C21.2325 38.51 30.7718 29.0956 30.7718 24.5162C30.7718 19.9369 21.2472 10.5273 16.607 10.5273ZM16.607 40.9346C10.5552 40.9346 0 30.5162 0 24.5162C0 18.5162 10.5601 8.09789 16.607 8.09789C22.6539 8.09789 33.214 18.5162 33.214 24.5162C33.214 30.5162 22.6686 40.9346 16.607 40.9346Z"
      fill="#f04679"
    />
    <path
      fill-rule="evenodd"
      clip-rule="evenodd"
      d="M104.385 23.9337V31.8327H100.829V24.4405C100.829 20.9835 99.3634 19.6433 97.0286 19.6433C94.4203 19.6433 92.2907 21.4618 92.2907 24.502V31.8327H88.7349V24.4405C88.7349 20.9835 87.2989 19.6433 84.9348 19.6433C82.2386 19.6433 80.1383 21.5802 80.1383 24.7388V31.8422H76.5776V17.0813H79.4447L80.1041 18.7483C80.1073 18.7522 80.1114 18.7554 80.1161 18.7576C80.1207 18.7598 80.1258 18.7609 80.131 18.7609C80.1362 18.7609 80.1413 18.7598 80.1459 18.7576C80.1506 18.7554 80.1547 18.7522 80.1579 18.7483C80.8908 18.0558 81.7582 17.5112 82.7099 17.1462C83.6615 16.7812 84.6784 16.603 85.7017 16.622C90.0097 16.622 91.3676 19.4633 91.563 19.9369C91.566 19.9418 91.5703 19.9459 91.5754 19.9487C91.5806 19.9515 91.5864 19.953 91.5923 19.953C91.5982 19.953 91.604 19.9515 91.6091 19.9487C91.6142 19.9459 91.6185 19.9418 91.6216 19.9369C92.2742 18.9191 93.1846 18.0802 94.2661 17.5C95.3476 16.9197 96.5643 16.6175 97.8004 16.622C102.157 16.6314 104.385 19.0466 104.385 23.9337Z"
      fill="#f04679"
    />
    <path
      fill-rule="evenodd"
      clip-rule="evenodd"
      d="M48.6679 29.2708C47.6786 29.3057 46.701 29.0532 45.8607 28.5457C45.0204 28.0381 44.3556 27.2987 43.9518 26.4224C43.548 25.546 43.4234 24.5726 43.5942 23.6271C43.765 22.6816 44.2233 21.8072 44.9102 21.116C45.5972 20.4248 46.4815 19.9484 47.4497 19.748C48.4179 19.5475 49.4258 19.6321 50.344 19.9909C51.2623 20.3497 52.049 20.9663 52.6033 21.7617C53.1575 22.557 53.454 23.4948 53.4546 24.4547C53.4769 25.7083 52.9855 26.9192 52.0881 27.8221C51.1908 28.7249 49.9608 29.2459 48.6679 29.2708ZM49.3322 16.5746C48.2939 16.5272 47.2562 16.6794 46.2787 17.0224C45.3013 17.3654 44.4035 17.8924 43.637 18.573C43.6343 18.577 43.6307 18.5802 43.6264 18.5824C43.6222 18.5846 43.6174 18.5858 43.6126 18.5858C43.6077 18.5858 43.603 18.5846 43.5987 18.5824C43.5944 18.5802 43.5908 18.577 43.5881 18.573L43.0167 17.1524H40.0518V36.2037C40.0504 36.4475 40.1319 36.685 40.2838 36.8794C40.4357 37.0737 40.6494 37.2141 40.8919 37.2787L43.6419 37.9843V30.4452C43.6425 30.4395 43.6446 30.434 43.6481 30.4293C43.6516 30.4246 43.6563 30.4208 43.6617 30.4184C43.6672 30.416 43.6731 30.4151 43.6791 30.4156C43.685 30.4161 43.6907 30.4182 43.6956 30.4215C45.1348 31.6638 46.9949 32.3498 48.9219 32.3489C51.0136 32.3015 53.0062 31.4756 54.487 30.0426C55.9678 28.6095 56.8231 26.6791 56.8759 24.6512C56.9286 22.6234 56.1747 20.6536 54.7703 19.15C53.3659 17.6464 51.4187 16.7242 49.3322 16.5746Z"
      fill="#f04679"
    />
    <path
      fill-rule="evenodd"
      clip-rule="evenodd"
      d="M66.5647 29.2708C69.1535 29.2708 71.2489 27.1161 71.2489 24.4547C71.2489 21.7933 69.1535 19.6433 66.5647 19.6433C63.976 19.6433 61.8855 21.7838 61.8855 24.4547C61.8855 27.1255 63.9858 29.2708 66.5647 29.2708ZM58.5787 24.4547C58.6085 22.9287 59.1025 21.4454 59.9987 20.1907C60.895 18.936 62.1534 17.9658 63.6162 17.402C65.079 16.8382 66.681 16.7059 68.2211 17.0216C69.7612 17.3373 71.1708 18.087 72.2731 19.1765C73.3753 20.2661 74.1211 21.6471 74.4168 23.1461C74.7125 24.6451 74.545 26.1954 73.9352 27.6025C73.3255 29.0095 72.3007 30.2106 70.9894 31.055C69.6782 31.8995 68.1389 32.3496 66.5647 32.3489C64.4264 32.3277 62.3841 31.4843 60.8867 30.0041C59.3893 28.5239 58.5592 26.5279 58.5787 24.4547Z"
      fill="#f04679"
    />
    <path
      fill-rule="evenodd"
      clip-rule="evenodd"
      d="M138.009 29.2709C140.598 29.2709 142.693 27.1162 142.693 24.4548C142.693 21.7934 140.598 19.6434 138.009 19.6434C135.42 19.6434 133.344 21.7839 133.344 24.4548C133.344 27.1256 135.425 29.2709 138.009 29.2709ZM130.023 24.4548C130.053 22.9288 130.547 21.4455 131.443 20.1908C132.339 18.9361 133.598 17.9659 135.06 17.4021C136.523 16.8383 138.125 16.706 139.665 17.0217C141.205 17.3374 142.615 18.0871 143.717 19.1766C144.82 20.2662 145.565 21.6472 145.861 23.1462C146.157 24.6452 145.989 26.1955 145.379 27.6026C144.77 29.0096 143.745 30.2107 142.434 31.0551C141.122 31.8996 139.583 32.3497 138.009 32.349C135.871 32.3278 133.828 31.4844 132.331 30.0042C130.834 28.524 130.003 26.528 130.023 24.4548Z"
      fill="#f04679"
    />
    <path
      fill-rule="evenodd"
      clip-rule="evenodd"
      d="M127.971 11.0008V31.8375H124.381V12.7862C124.381 12.5425 124.463 12.3054 124.614 12.1112C124.766 11.917 124.979 11.7765 125.221 11.7112L127.971 11.0008Z"
      fill="#f04679"
    />
    <path
      fill-rule="evenodd"
      clip-rule="evenodd"
      d="M114.359 19.6433C115.37 19.6602 116.348 19.9915 117.15 20.5883C117.952 21.1851 118.535 22.0159 118.814 22.9582C118.815 22.9633 118.815 22.9686 118.814 22.9738C118.813 22.979 118.811 22.9839 118.808 22.9881C118.804 22.9922 118.8 22.9956 118.795 22.9978C118.79 23 118.785 23.0011 118.779 23.0008H109.943C109.938 23.0011 109.933 23 109.928 22.9978C109.923 22.9956 109.918 22.9922 109.915 22.9881C109.912 22.9839 109.909 22.979 109.908 22.9738C109.907 22.9686 109.908 22.9633 109.909 22.9582C110.187 22.0163 110.769 21.1856 111.57 20.5888C112.371 19.9919 113.349 19.6605 114.359 19.6433ZM118.291 27.0735C117.886 27.7364 117.311 28.2869 116.622 28.6718C115.933 29.0567 115.154 29.263 114.359 29.2708C113.31 29.2492 112.297 28.8906 111.48 28.2513C110.664 27.612 110.089 26.7281 109.846 25.738C109.844 25.7329 109.844 25.7276 109.845 25.7224C109.846 25.7172 109.848 25.7123 109.852 25.7082C109.855 25.704 109.859 25.7007 109.864 25.6984C109.869 25.6962 109.875 25.6952 109.88 25.6954H122.247C122.316 25.2852 122.351 24.8703 122.35 24.4547C122.321 22.9276 121.828 21.4428 120.931 20.1867C120.035 18.9306 118.776 17.9591 117.313 17.3942C115.849 16.8293 114.246 16.6962 112.705 17.0116C111.163 17.3269 109.752 18.0767 108.649 19.1668C107.545 20.2569 106.799 21.6387 106.502 23.1388C106.206 24.6388 106.373 26.1903 106.983 27.5985C107.593 29.0067 108.619 30.2088 109.931 31.054C111.243 31.8991 112.784 32.3496 114.359 32.3489C115.765 32.3429 117.145 31.9756 118.358 31.2843C119.57 30.593 120.572 29.6025 121.261 28.4136L118.291 27.0735Z"
      fill="#f04679"
    />
  </g>
  <defs>
    <clipPath id="clip0_1163_1720">
      <rect width="146" height="40.9346" fill="white" />
    </clipPath>
  </defs>
</svg>
